  0
SECTION
  2
BLOCKS
  0
ENDSEC
  0
SECTION
  2
ENTITIES
  0
LINE
  8
0
 10
-90
 11
-90
 20
-85
 21
85
  0
LINE
  8
0
 10
-90
 11
-89.619
 20
85
 21
86.913
  0
LINE
  8
0
 10
-89.619
 11
-88.536
 20
86.913
 21
88.536
  0
LINE
  8
0
 10
-88.536
 11
-86.913
 20
88.536
 21
89.619
  0
LINE
  8
0
 10
-86.913
 11
-85
 20
89.619
 21
90
  0
LINE
  8
0
 10
-85
 11
85
 20
90
 21
90
  0
LINE
  8
0
 10
85
 11
86.913
 20
90
 21
89.619
  0
LINE
  8
0
 10
86.913
 11
88.536
 20
89.619
 21
88.536
  0
LINE
  8
0
 10
88.536
 11
89.619
 20
88.536
 21
86.913
  0
LINE
  8
0
 10
89.619
 11
90
 20
86.913
 21
85
  0
LINE
  8
0
 10
90
 11
90
 20
85
 21
-85
  0
LINE
  8
0
 10
90
 11
89.619
 20
-85
 21
-86.913
  0
LINE
  8
0
 10
89.619
 11
88.536
 20
-86.913
 21
-88.536
  0
LINE
  8
0
 10
88.536
 11
86.913
 20
-88.536
 21
-89.619
  0
LINE
  8
0
 10
86.913
 11
85
 20
-89.619
 21
-90
  0
LINE
  8
0
 10
85
 11
-85
 20
-90
 21
-90
  0
LINE
  8
0
 10
-85
 11
-86.913
 20
-90
 21
-89.619
  0
LINE
  8
0
 10
-86.913
 11
-88.536
 20
-89.619
 21
-88.536
  0
LINE
  8
0
 10
-88.536
 11
-89.619
 20
-88.536
 21
-86.913
  0
LINE
  8
0
 10
-89.619
 11
-90
 20
-86.913
 21
-85
  0
LINE
  8
0
 10
-90
 11
-90
 20
105
 21
275
  0
LINE
  8
0
 10
-90
 11
-89.619
 20
275
 21
276.913
  0
LINE
  8
0
 10
-89.619
 11
-88.536
 20
276.913
 21
278.536
  0
LINE
  8
0
 10
-88.536
 11
-86.913
 20
278.536
 21
279.619
  0
LINE
  8
0
 10
-86.913
 11
-85
 20
279.619
 21
280
  0
LINE
  8
0
 10
-85
 11
85
 20
280
 21
280
  0
LINE
  8
0
 10
85
 11
86.913
 20
280
 21
279.619
  0
LINE
  8
0
 10
86.913
 11
88.536
 20
279.619
 21
278.536
  0
LINE
  8
0
 10
88.536
 11
89.619
 20
278.536
 21
276.913
  0
LINE
  8
0
 10
89.619
 11
90
 20
276.913
 21
275
  0
LINE
  8
0
 10
90
 11
90
 20
275
 21
105
  0
LINE
  8
0
 10
90
 11
89.619
 20
105
 21
103.087
  0
LINE
  8
0
 10
89.619
 11
88.536
 20
103.087
 21
101.464
  0
LINE
  8
0
 10
88.536
 11
86.913
 20
101.464
 21
100.381
  0
LINE
  8
0
 10
86.913
 11
85
 20
100.381
 21
100
  0
LINE
  8
0
 10
85
 11
-85
 20
100
 21
100
  0
LINE
  8
0
 10
-85
 11
-86.913
 20
100
 21
100.381
  0
LINE
  8
0
 10
-86.913
 11
-88.536
 20
100.381
 21
101.464
  0
LINE
  8
0
 10
-88.536
 11
-89.619
 20
101.464
 21
103.087
  0
LINE
  8
0
 10
-89.619
 11
-90
 20
103.087
 21
105
  0
LINE
  8
0
 10
-90
 11
-90
 20
295
 21
465
  0
LINE
  8
0
 10
-90
 11
-89.619
 20
465
 21
466.913
  0
LINE
  8
0
 10
-89.619
 11
-88.536
 20
466.913
 21
468.536
  0
LINE
  8
0
 10
-88.536
 11
-86.913
 20
468.536
 21
469.619
  0
LINE
  8
0
 10
-86.913
 11
-85
 20
469.619
 21
470
  0
LINE
  8
0
 10
-85
 11
85
 20
470
 21
470
  0
LINE
  8
0
 10
85
 11
86.913
 20
470
 21
469.619
  0
LINE
  8
0
 10
86.913
 11
88.536
 20
469.619
 21
468.536
  0
LINE
  8
0
 10
88.536
 11
89.619
 20
468.536
 21
466.913
  0
LINE
  8
0
 10
89.619
 11
90
 20
466.913
 21
465
  0
LINE
  8
0
 10
90
 11
90
 20
465
 21
295
  0
LINE
  8
0
 10
90
 11
89.619
 20
295
 21
293.087
  0
LINE
  8
0
 10
89.619
 11
88.536
 20
293.087
 21
291.464
  0
LINE
  8
0
 10
88.536
 11
86.913
 20
291.464
 21
290.381
  0
LINE
  8
0
 10
86.913
 11
85
 20
290.381
 21
290
  0
LINE
  8
0
 10
85
 11
-85
 20
290
 21
290
  0
LINE
  8
0
 10
-85
 11
-86.913
 20
290
 21
290.381
  0
LINE
  8
0
 10
-86.913
 11
-88.536
 20
290.381
 21
291.464
  0
LINE
  8
0
 10
-88.536
 11
-89.619
 20
291.464
 21
293.087
  0
LINE
  8
0
 10
-89.619
 11
-90
 20
293.087
 21
295
  0
LINE
  8
0
 10
-90
 11
-90
 20
485
 21
655
  0
LINE
  8
0
 10
-90
 11
-89.619
 20
655
 21
656.913
  0
LINE
  8
0
 10
-89.619
 11
-88.536
 20
656.913
 21
658.536
  0
LINE
  8
0
 10
-88.536
 11
-86.913
 20
658.536
 21
659.619
  0
LINE
  8
0
 10
-86.913
 11
-85
 20
659.619
 21
660
  0
LINE
  8
0
 10
-85
 11
85
 20
660
 21
660
  0
LINE
  8
0
 10
85
 11
86.913
 20
660
 21
659.619
  0
LINE
  8
0
 10
86.913
 11
88.536
 20
659.619
 21
658.536
  0
LINE
  8
0
 10
88.536
 11
89.619
 20
658.536
 21
656.913
  0
LINE
  8
0
 10
89.619
 11
90
 20
656.913
 21
655
  0
LINE
  8
0
 10
90
 11
90
 20
655
 21
485
  0
LINE
  8
0
 10
90
 11
89.619
 20
485
 21
483.087
  0
LINE
  8
0
 10
89.619
 11
88.536
 20
483.087
 21
481.464
  0
LINE
  8
0
 10
88.536
 11
86.913
 20
481.464
 21
480.381
  0
LINE
  8
0
 10
86.913
 11
85
 20
480.381
 21
480
  0
LINE
  8
0
 10
85
 11
-85
 20
480
 21
480
  0
LINE
  8
0
 10
-85
 11
-86.913
 20
480
 21
480.381
  0
LINE
  8
0
 10
-86.913
 11
-88.536
 20
480.381
 21
481.464
  0
LINE
  8
0
 10
-88.536
 11
-89.619
 20
481.464
 21
483.087
  0
LINE
  8
0
 10
-89.619
 11
-90
 20
483.087
 21
485
  0
LINE
  8
0
 10
-83.175
 11
-81.588
 20
-80
 21
-77.25
  0
LINE
  8
0
 10
-81.588
 11
-78.412
 20
-77.25
 21
-77.25
  0
LINE
  8
0
 10
-78.412
 11
-76.825
 20
-77.25
 21
-80
  0
LINE
  8
0
 10
-76.825
 11
-78.412
 20
-80
 21
-82.75
  0
LINE
  8
0
 10
-78.412
 11
-81.588
 20
-82.75
 21
-82.75
  0
LINE
  8
0
 10
-81.588
 11
-83.175
 20
-82.75
 21
-80
  0
LINE
  8
0
 10
-83.175
 11
-81.588
 20
80
 21
82.75
  0
LINE
  8
0
 10
-81.588
 11
-78.412
 20
82.75
 21
82.75
  0
LINE
  8
0
 10
-78.412
 11
-76.825
 20
82.75
 21
80
  0
LINE
  8
0
 10
-76.825
 11
-78.412
 20
80
 21
77.25
  0
LINE
  8
0
 10
-78.412
 11
-81.588
 20
77.25
 21
77.25
  0
LINE
  8
0
 10
-81.588
 11
-83.175
 20
77.25
 21
80
  0
LINE
  8
0
 10
-83.175
 11
-81.588
 20
110
 21
112.75
  0
LINE
  8
0
 10
-81.588
 11
-78.412
 20
112.75
 21
112.75
  0
LINE
  8
0
 10
-78.412
 11
-76.825
 20
112.75
 21
110
  0
LINE
  8
0
 10
-76.825
 11
-78.412
 20
110
 21
107.25
  0
LINE
  8
0
 10
-78.412
 11
-81.588
 20
107.25
 21
107.25
  0
LINE
  8
0
 10
-81.588
 11
-83.175
 20
107.25
 21
110
  0
LINE
  8
0
 10
-83.175
 11
-81.588
 20
270
 21
272.75
  0
LINE
  8
0
 10
-81.588
 11
-78.412
 20
272.75
 21
272.75
  0
LINE
  8
0
 10
-78.412
 11
-76.825
 20
272.75
 21
270
  0
LINE
  8
0
 10
-76.825
 11
-78.412
 20
270
 21
267.25
  0
LINE
  8
0
 10
-78.412
 11
-81.588
 20
267.25
 21
267.25
  0
LINE
  8
0
 10
-81.588
 11
-83.175
 20
267.25
 21
270
  0
LINE
  8
0
 10
-83.175
 11
-81.588
 20
300
 21
302.75
  0
LINE
  8
0
 10
-81.588
 11
-78.412
 20
302.75
 21
302.75
  0
LINE
  8
0
 10
-78.412
 11
-76.825
 20
302.75
 21
300
  0
LINE
  8
0
 10
-76.825
 11
-78.412
 20
300
 21
297.25
  0
LINE
  8
0
 10
-78.412
 11
-81.588
 20
297.25
 21
297.25
  0
LINE
  8
0
 10
-81.588
 11
-83.175
 20
297.25
 21
300
  0
LINE
  8
0
 10
-83.175
 11
-81.588
 20
460
 21
462.75
  0
LINE
  8
0
 10
-81.588
 11
-78.412
 20
462.75
 21
462.75
  0
LINE
  8
0
 10
-78.412
 11
-76.825
 20
462.75
 21
460
  0
LINE
  8
0
 10
-76.825
 11
-78.412
 20
460
 21
457.25
  0
LINE
  8
0
 10
-78.412
 11
-81.588
 20
457.25
 21
457.25
  0
LINE
  8
0
 10
-81.588
 11
-83.175
 20
457.25
 21
460
  0
LINE
  8
0
 10
-81.6
 11
-80.8
 20
490
 21
491.386
  0
LINE
  8
0
 10
-80.8
 11
-79.2
 20
491.386
 21
491.386
  0
LINE
  8
0
 10
-79.2
 11
-78.4
 20
491.386
 21
490
  0
LINE
  8
0
 10
-78.4
 11
-79.2
 20
490
 21
488.614
  0
LINE
  8
0
 10
-79.2
 11
-80.8
 20
488.614
 21
488.614
  0
LINE
  8
0
 10
-80.8
 11
-81.6
 20
488.614
 21
490
  0
LINE
  8
0
 10
-81.6
 11
-80.8
 20
650
 21
651.386
  0
LINE
  8
0
 10
-80.8
 11
-79.2
 20
651.386
 21
651.386
  0
LINE
  8
0
 10
-79.2
 11
-78.4
 20
651.386
 21
650
  0
LINE
  8
0
 10
-78.4
 11
-79.2
 20
650
 21
648.614
  0
LINE
  8
0
 10
-79.2
 11
-80.8
 20
648.614
 21
648.614
  0
LINE
  8
0
 10
-80.8
 11
-81.6
 20
648.614
 21
650
  0
LINE
  8
0
 10
-65
 11
-64.672
 20
-50
 21
-46.881
  0
LINE
  8
0
 10
-64.672
 11
-63.703
 20
-46.881
 21
-43.899
  0
LINE
  8
0
 10
-63.703
 11
-62.135
 20
-43.899
 21
-41.183
  0
LINE
  8
0
 10
-62.135
 11
-60.037
 20
-41.183
 21
-38.853
  0
LINE
  8
0
 10
-60.037
 11
-57.5
 20
-38.853
 21
-37.01
  0
LINE
  8
0
 10
-57.5
 11
-54.635
 20
-37.01
 21
-35.734
  0
LINE
  8
0
 10
-54.635
 11
-51.568
 20
-35.734
 21
-35.082
  0
LINE
  8
0
 10
-51.568
 11
-48.432
 20
-35.082
 21
-35.082
  0
LINE
  8
0
 10
-48.432
 11
-45.365
 20
-35.082
 21
-35.734
  0
LINE
  8
0
 10
-45.365
 11
-42.5
 20
-35.734
 21
-37.01
  0
LINE
  8
0
 10
-42.5
 11
-39.963
 20
-37.01
 21
-38.853
  0
LINE
  8
0
 10
-39.963
 11
-37.865
 20
-38.853
 21
-41.183
  0
LINE
  8
0
 10
-37.865
 11
-36.297
 20
-41.183
 21
-43.899
  0
LINE
  8
0
 10
-36.297
 11
-35.328
 20
-43.899
 21
-46.881
  0
LINE
  8
0
 10
-35.328
 11
-35
 20
-46.881
 21
-50
  0
LINE
  8
0
 10
-35
 11
-35.328
 20
-50
 21
-53.119
  0
LINE
  8
0
 10
-35.328
 11
-36.297
 20
-53.119
 21
-56.101
  0
LINE
  8
0
 10
-36.297
 11
-37.865
 20
-56.101
 21
-58.817
  0
LINE
  8
0
 10
-37.865
 11
-39.963
 20
-58.817
 21
-61.147
  0
LINE
  8
0
 10
-39.963
 11
-42.5
 20
-61.147
 21
-62.99
  0
LINE
  8
0
 10
-42.5
 11
-45.365
 20
-62.99
 21
-64.266
  0
LINE
  8
0
 10
-45.365
 11
-48.432
 20
-64.266
 21
-64.918
  0
LINE
  8
0
 10
-48.432
 11
-51.568
 20
-64.918
 21
-64.918
  0
LINE
  8
0
 10
-51.568
 11
-54.635
 20
-64.918
 21
-64.266
  0
LINE
  8
0
 10
-54.635
 11
-57.5
 20
-64.266
 21
-62.99
  0
LINE
  8
0
 10
-57.5
 11
-60.037
 20
-62.99
 21
-61.147
  0
LINE
  8
0
 10
-60.037
 11
-62.135
 20
-61.147
 21
-58.817
  0
LINE
  8
0
 10
-62.135
 11
-63.703
 20
-58.817
 21
-56.101
  0
LINE
  8
0
 10
-63.703
 11
-64.672
 20
-56.101
 21
-53.119
  0
LINE
  8
0
 10
-64.672
 11
-65
 20
-53.119
 21
-50
  0
LINE
  8
0
 10
-65
 11
-65
 20
320
 21
440
  0
LINE
  8
0
 10
-65
 11
-64.619
 20
440
 21
441.913
  0
LINE
  8
0
 10
-64.619
 11
-63.536
 20
441.913
 21
443.536
  0
LINE
  8
0
 10
-63.536
 11
-61.913
 20
443.536
 21
444.619
  0
LINE
  8
0
 10
-61.913
 11
-60
 20
444.619
 21
445
  0
LINE
  8
0
 10
-60
 11
60
 20
445
 21
445
  0
LINE
  8
0
 10
60
 11
61.913
 20
445
 21
444.619
  0
LINE
  8
0
 10
61.913
 11
63.536
 20
444.619
 21
443.536
  0
LINE
  8
0
 10
63.536
 11
64.619
 20
443.536
 21
441.913
  0
LINE
  8
0
 10
64.619
 11
65
 20
441.913
 21
440
  0
LINE
  8
0
 10
65
 11
65
 20
440
 21
320
  0
LINE
  8
0
 10
65
 11
64.619
 20
320
 21
318.087
  0
LINE
  8
0
 10
64.619
 11
63.536
 20
318.087
 21
316.464
  0
LINE
  8
0
 10
63.536
 11
61.913
 20
316.464
 21
315.381
  0
LINE
  8
0
 10
61.913
 11
60
 20
315.381
 21
315
  0
LINE
  8
0
 10
60
 11
-60
 20
315
 21
315
  0
LINE
  8
0
 10
-60
 11
-61.913
 20
315
 21
315.381
  0
LINE
  8
0
 10
-61.913
 11
-63.536
 20
315.381
 21
316.464
  0
LINE
  8
0
 10
-63.536
 11
-64.619
 20
316.464
 21
318.087
  0
LINE
  8
0
 10
-64.619
 11
-65
 20
318.087
 21
320
  0
LINE
  8
0
 10
-55
 11
-54.672
 20
50
 21
53.119
  0
LINE
  8
0
 10
-54.672
 11
-53.703
 20
53.119
 21
56.101
  0
LINE
  8
0
 10
-53.703
 11
-52.135
 20
56.101
 21
58.817
  0
LINE
  8
0
 10
-52.135
 11
-50.037
 20
58.817
 21
61.147
  0
LINE
  8
0
 10
-50.037
 11
-47.5
 20
61.147
 21
62.99
  0
LINE
  8
0
 10
-47.5
 11
-44.635
 20
62.99
 21
64.266
  0
LINE
  8
0
 10
-44.635
 11
-41.568
 20
64.266
 21
64.918
  0
LINE
  8
0
 10
-41.568
 11
-38.432
 20
64.918
 21
64.918
  0
LINE
  8
0
 10
-38.432
 11
-35.365
 20
64.918
 21
64.266
  0
LINE
  8
0
 10
-35.365
 11
-32.5
 20
64.266
 21
62.99
  0
LINE
  8
0
 10
-32.5
 11
-29.963
 20
62.99
 21
61.147
  0
LINE
  8
0
 10
-29.963
 11
-27.865
 20
61.147
 21
58.817
  0
LINE
  8
0
 10
-27.865
 11
-26.297
 20
58.817
 21
56.101
  0
LINE
  8
0
 10
-26.297
 11
-25.328
 20
56.101
 21
53.119
  0
LINE
  8
0
 10
-25.328
 11
-25
 20
53.119
 21
50
  0
LINE
  8
0
 10
-25
 11
-25.328
 20
50
 21
46.881
  0
LINE
  8
0
 10
-25.328
 11
-26.297
 20
46.881
 21
43.899
  0
LINE
  8
0
 10
-26.297
 11
-27.865
 20
43.899
 21
41.183
  0
LINE
  8
0
 10
-27.865
 11
-29.963
 20
41.183
 21
38.853
  0
LINE
  8
0
 10
-29.963
 11
-32.5
 20
38.853
 21
37.01
  0
LINE
  8
0
 10
-32.5
 11
-35.365
 20
37.01
 21
35.734
  0
LINE
  8
0
 10
-35.365
 11
-38.432
 20
35.734
 21
35.082
  0
LINE
  8
0
 10
-38.432
 11
-41.568
 20
35.082
 21
35.082
  0
LINE
  8
0
 10
-41.568
 11
-44.635
 20
35.082
 21
35.734
  0
LINE
  8
0
 10
-44.635
 11
-47.5
 20
35.734
 21
37.01
  0
LINE
  8
0
 10
-47.5
 11
-50.037
 20
37.01
 21
38.853
  0
LINE
  8
0
 10
-50.037
 11
-52.135
 20
38.853
 21
41.183
  0
LINE
  8
0
 10
-52.135
 11
-53.703
 20
41.183
 21
43.899
  0
LINE
  8
0
 10
-53.703
 11
-54.672
 20
43.899
 21
46.881
  0
LINE
  8
0
 10
-54.672
 11
-55
 20
46.881
 21
50
  0
LINE
  8
0
 10
-51.6
 11
-51.597
 20
140
 21
140.1
  0
LINE
  8
0
 10
-51.597
 11
-51.587
 20
140.1
 21
140.201
  0
LINE
  8
0
 10
-51.587
 11
-51.572
 20
140.201
 21
140.3
  0
LINE
  8
0
 10
-51.572
 11
-51.55
 20
140.3
 21
140.398
  0
LINE
  8
0
 10
-51.55
 11
-51.522
 20
140.398
 21
140.494
  0
LINE
  8
0
 10
-51.522
 11
-51.488
 20
140.494
 21
140.589
  0
LINE
  8
0
 10
-51.488
 11
-51.448
 20
140.589
 21
140.681
  0
LINE
  8
0
 10
-51.448
 11
-51.402
 20
140.681
 21
140.771
  0
LINE
  8
0
 10
-51.402
 11
-51.351
 20
140.771
 21
140.857
  0
LINE
  8
0
 10
-51.351
 11
-51.294
 20
140.857
 21
140.94
  0
LINE
  8
0
 10
-51.294
 11
-51.233
 20
140.94
 21
141.02
  0
LINE
  8
0
 10
-51.233
 11
-51.166
 20
141.02
 21
141.095
  0
LINE
  8
0
 10
-51.166
 11
-51.095
 20
141.095
 21
141.166
  0
LINE
  8
0
 10
-51.095
 11
-51.02
 20
141.166
 21
141.233
  0
LINE
  8
0
 10
-51.02
 11
-50.94
 20
141.233
 21
141.294
  0
LINE
  8
0
 10
-50.94
 11
-50.857
 20
141.294
 21
141.351
  0
LINE
  8
0
 10
-50.857
 11
-50.771
 20
141.351
 21
141.402
  0
LINE
  8
0
 10
-50.771
 11
-50.681
 20
141.402
 21
141.448
  0
LINE
  8
0
 10
-50.681
 11
-50.589
 20
141.448
 21
141.488
  0
LINE
  8
0
 10
-50.589
 11
-50.494
 20
141.488
 21
141.522
  0
LINE
  8
0
 10
-50.494
 11
-50.398
 20
141.522
 21
141.55
  0
LINE
  8
0
 10
-50.398
 11
-50.3
 20
141.55
 21
141.572
  0
LINE
  8
0
 10
-50.3
 11
-50.201
 20
141.572
 21
141.587
  0
LINE
  8
0
 10
-50.201
 11
-50.1
 20
141.587
 21
141.597
  0
LINE
  8
0
 10
-50.1
 11
-50
 20
141.597
 21
141.6
  0
LINE
  8
0
 10
-50
 11
-48.295
 20
141.6
 21
141.6
  0
LINE
  8
0
 10
-48.295
 11
-48.275
 20
141.6
 21
141.634
  0
LINE
  8
0
 10
-48.275
 11
-48.168
 20
141.634
 21
141.793
  0
LINE
  8
0
 10
-48.168
 11
-48.05
 20
141.793
 21
141.944
  0
LINE
  8
0
 10
-48.05
 11
-47.923
 20
141.944
 21
142.088
  0
LINE
  8
0
 10
-47.923
 11
-47.788
 20
142.088
 21
142.223
  0
LINE
  8
0
 10
-47.788
 11
-47.644
 20
142.223
 21
142.35
  0
LINE
  8
0
 10
-47.644
 11
-47.493
 20
142.35
 21
142.468
  0
LINE
  8
0
 10
-47.493
 11
-47.334
 20
142.468
 21
142.575
  0
LINE
  8
0
 10
-47.334
 11
-47.169
 20
142.575
 21
142.673
  0
LINE
  8
0
 10
-47.169
 11
-46.999
 20
142.673
 21
142.76
  0
LINE
  8
0
 10
-46.999
 11
-46.823
 20
142.76
 21
142.836
  0
LINE
  8
0
 10
-46.823
 11
-46.643
 20
142.836
 21
142.901
  0
LINE
  8
0
 10
-46.643
 11
-46.459
 20
142.901
 21
142.954
  0
LINE
  8
0
 10
-46.459
 11
-46.272
 20
142.954
 21
142.996
  0
LINE
  8
0
 10
-46.272
 11
-46.082
 20
142.996
 21
143.026
  0
LINE
  8
0
 10
-46.082
 11
-45.892
 20
143.026
 21
143.044
  0
LINE
  8
0
 10
-45.892
 11
-45.7
 20
143.044
 21
143.05
  0
LINE
  8
0
 10
-45.7
 11
-45.508
 20
143.05
 21
143.044
  0
LINE
  8
0
 10
-45.508
 11
-45.318
 20
143.044
 21
143.026
  0
LINE
  8
0
 10
-45.318
 11
-45.128
 20
143.026
 21
142.996
  0
LINE
  8
0
 10
-45.128
 11
-44.941
 20
142.996
 21
142.954
  0
LINE
  8
0
 10
-44.941
 11
-44.757
 20
142.954
 21
142.901
  0
LINE
  8
0
 10
-44.757
 11
-44.577
 20
142.901
 21
142.836
  0
LINE
  8
0
 10
-44.577
 11
-44.401
 20
142.836
 21
142.76
  0
LINE
  8
0
 10
-44.401
 11
-44.231
 20
142.76
 21
142.673
  0
LINE
  8
0
 10
-44.231
 11
-44.066
 20
142.673
 21
142.575
  0
LINE
  8
0
 10
-44.066
 11
-43.907
 20
142.575
 21
142.468
  0
LINE
  8
0
 10
-43.907
 11
-43.756
 20
142.468
 21
142.35
  0
LINE
  8
0
 10
-43.756
 11
-43.612
 20
142.35
 21
142.223
  0
LINE
  8
0
 10
-43.612
 11
-43.477
 20
142.223
 21
142.088
  0
LINE
  8
0
 10
-43.477
 11
-43.35
 20
142.088
 21
141.944
  0
LINE
  8
0
 10
-43.35
 11
-43.232
 20
141.944
 21
141.793
  0
LINE
  8
0
 10
-43.232
 11
-43.125
 20
141.793
 21
141.634
  0
LINE
  8
0
 10
-43.125
 11
-43.027
 20
141.634
 21
141.469
  0
LINE
  8
0
 10
-43.027
 11
-42.94
 20
141.469
 21
141.299
  0
LINE
  8
0
 10
-42.94
 11
-42.864
 20
141.299
 21
141.123
  0
LINE
  8
0
 10
-42.864
 11
-42.799
 20
141.123
 21
140.943
  0
LINE
  8
0
 10
-42.799
 11
-42.746
 20
140.943
 21
140.759
  0
LINE
  8
0
 10
-42.746
 11
-42.704
 20
140.759
 21
140.572
  0
LINE
  8
0
 10
-42.704
 11
-42.674
 20
140.572
 21
140.382
  0
LINE
  8
0
 10
-42.674
 11
-42.656
 20
140.382
 21
140.192
  0
LINE
  8
0
 10
-42.656
 11
-42.65
 20
140.192
 21
140
  0
LINE
  8
0
 10
-42.65
 11
-42.656
 20
140
 21
139.808
  0
LINE
  8
0
 10
-42.656
 11
-42.674
 20
139.808
 21
139.618
  0
LINE
  8
0
 10
-42.674
 11
-42.704
 20
139.618
 21
139.428
  0
LINE
  8
0
 10
-42.704
 11
-42.746
 20
139.428
 21
139.241
  0
LINE
  8
0
 10
-42.746
 11
-42.799
 20
139.241
 21
139.057
  0
LINE
  8
0
 10
-42.799
 11
-42.864
 20
139.057
 21
138.877
  0
LINE
  8
0
 10
-42.864
 11
-42.94
 20
138.877
 21
138.701
  0
LINE
  8
0
 10
-42.94
 11
-43.027
 20
138.701
 21
138.531
  0
LINE
  8
0
 10
-43.027
 11
-43.125
 20
138.531
 21
138.366
  0
LINE
  8
0
 10
-43.125
 11
-43.232
 20
138.366
 21
138.207
  0
LINE
  8
0
 10
-43.232
 11
-43.35
 20
138.207
 21
138.056
  0
LINE
  8
0
 10
-43.35
 11
-43.477
 20
138.056
 21
137.912
  0
LINE
  8
0
 10
-43.477
 11
-43.612
 20
137.912
 21
137.777
  0
LINE
  8
0
 10
-43.612
 11
-43.756
 20
137.777
 21
137.65
  0
LINE
  8
0
 10
-43.756
 11
-43.907
 20
137.65
 21
137.532
  0
LINE
  8
0
 10
-43.907
 11
-44.066
 20
137.532
 21
137.425
  0
LINE
  8
0
 10
-44.066
 11
-44.231
 20
137.425
 21
137.327
  0
LINE
  8
0
 10
-44.231
 11
-44.401
 20
137.327
 21
137.24
  0
LINE
  8
0
 10
-44.401
 11
-44.577
 20
137.24
 21
137.164
  0
LINE
  8
0
 10
-44.577
 11
-44.757
 20
137.164
 21
137.099
  0
LINE
  8
0
 10
-44.757
 11
-44.941
 20
137.099
 21
137.046
  0
LINE
  8
0
 10
-44.941
 11
-45.128
 20
137.046
 21
137.004
  0
LINE
  8
0
 10
-45.128
 11
-45.318
 20
137.004
 21
136.974
  0
LINE
  8
0
 10
-45.318
 11
-45.508
 20
136.974
 21
136.956
  0
LINE
  8
0
 10
-45.508
 11
-45.7
 20
136.956
 21
136.95
  0
LINE
  8
0
 10
-45.7
 11
-45.892
 20
136.95
 21
136.956
  0
LINE
  8
0
 10
-45.892
 11
-46.082
 20
136.956
 21
136.974
  0
LINE
  8
0
 10
-46.082
 11
-46.272
 20
136.974
 21
137.004
  0
LINE
  8
0
 10
-46.272
 11
-46.459
 20
137.004
 21
137.046
  0
LINE
  8
0
 10
-46.459
 11
-46.643
 20
137.046
 21
137.099
  0
LINE
  8
0
 10
-46.643
 11
-46.823
 20
137.099
 21
137.164
  0
LINE
  8
0
 10
-46.823
 11
-46.999
 20
137.164
 21
137.24
  0
LINE
  8
0
 10
-46.999
 11
-47.169
 20
137.24
 21
137.327
  0
LINE
  8
0
 10
-47.169
 11
-47.334
 20
137.327
 21
137.425
  0
LINE
  8
0
 10
-47.334
 11
-47.493
 20
137.425
 21
137.532
  0
LINE
  8
0
 10
-47.493
 11
-47.644
 20
137.532
 21
137.65
  0
LINE
  8
0
 10
-47.644
 11
-47.788
 20
137.65
 21
137.777
  0
LINE
  8
0
 10
-47.788
 11
-47.923
 20
137.777
 21
137.912
  0
LINE
  8
0
 10
-47.923
 11
-48.05
 20
137.912
 21
138.056
  0
LINE
  8
0
 10
-48.05
 11
-48.168
 20
138.056
 21
138.207
  0
LINE
  8
0
 10
-48.168
 11
-48.275
 20
138.207
 21
138.366
  0
LINE
  8
0
 10
-48.275
 11
-48.295
 20
138.366
 21
138.4
  0
LINE
  8
0
 10
-48.295
 11
-50
 20
138.4
 21
138.4
  0
LINE
  8
0
 10
-50
 11
-50.1
 20
138.4
 21
138.403
  0
LINE
  8
0
 10
-50.1
 11
-50.201
 20
138.403
 21
138.413
  0
LINE
  8
0
 10
-50.201
 11
-50.3
 20
138.413
 21
138.428
  0
LINE
  8
0
 10
-50.3
 11
-50.398
 20
138.428
 21
138.45
  0
LINE
  8
0
 10
-50.398
 11
-50.494
 20
138.45
 21
138.478
  0
LINE
  8
0
 10
-50.494
 11
-50.589
 20
138.478
 21
138.512
  0
LINE
  8
0
 10
-50.589
 11
-50.681
 20
138.512
 21
138.552
  0
LINE
  8
0
 10
-50.681
 11
-50.771
 20
138.552
 21
138.598
  0
LINE
  8
0
 10
-50.771
 11
-50.857
 20
138.598
 21
138.649
  0
LINE
  8
0
 10
-50.857
 11
-50.94
 20
138.649
 21
138.706
  0
LINE
  8
0
 10
-50.94
 11
-51.02
 20
138.706
 21
138.767
  0
LINE
  8
0
 10
-51.02
 11
-51.095
 20
138.767
 21
138.834
  0
LINE
  8
0
 10
-51.095
 11
-51.166
 20
138.834
 21
138.905
  0
LINE
  8
0
 10
-51.166
 11
-51.233
 20
138.905
 21
138.98
  0
LINE
  8
0
 10
-51.233
 11
-51.294
 20
138.98
 21
139.06
  0
LINE
  8
0
 10
-51.294
 11
-51.351
 20
139.06
 21
139.143
  0
LINE
  8
0
 10
-51.351
 11
-51.402
 20
139.143
 21
139.229
  0
LINE
  8
0
 10
-51.402
 11
-51.448
 20
139.229
 21
139.319
  0
LINE
  8
0
 10
-51.448
 11
-51.488
 20
139.319
 21
139.411
  0
LINE
  8
0
 10
-51.488
 11
-51.522
 20
139.411
 21
139.506
  0
LINE
  8
0
 10
-51.522
 11
-51.55
 20
139.506
 21
139.602
  0
LINE
  8
0
 10
-51.55
 11
-51.572
 20
139.602
 21
139.7
  0
LINE
  8
0
 10
-51.572
 11
-51.587
 20
139.7
 21
139.799
  0
LINE
  8
0
 10
-51.587
 11
-51.597
 20
139.799
 21
139.9
  0
LINE
  8
0
 10
-51.597
 11
-51.6
 20
139.9
 21
140
  0
LINE
  8
0
 10
-50
 11
-50
 20
520
 21
530
  0
LINE
  8
0
 10
-50
 11
-40
 20
530
 21
530
  0
LINE
  8
0
 10
-40
 11
-40
 20
530
 21
520
  0
LINE
  8
0
 10
-40
 11
-50
 20
520
 21
520
  0
LINE
  8
0
 10
-41.6
 11
-41.597
 20
240
 21
240.1
  0
LINE
  8
0
 10
-41.597
 11
-41.587
 20
240.1
 21
240.201
  0
LINE
  8
0
 10
-41.587
 11
-41.572
 20
240.201
 21
240.3
  0
LINE
  8
0
 10
-41.572
 11
-41.55
 20
240.3
 21
240.398
  0
LINE
  8
0
 10
-41.55
 11
-41.522
 20
240.398
 21
240.494
  0
LINE
  8
0
 10
-41.522
 11
-41.488
 20
240.494
 21
240.589
  0
LINE
  8
0
 10
-41.488
 11
-41.448
 20
240.589
 21
240.681
  0
LINE
  8
0
 10
-41.448
 11
-41.402
 20
240.681
 21
240.771
  0
LINE
  8
0
 10
-41.402
 11
-41.351
 20
240.771
 21
240.857
  0
LINE
  8
0
 10
-41.351
 11
-41.294
 20
240.857
 21
240.94
  0
LINE
  8
0
 10
-41.294
 11
-41.233
 20
240.94
 21
241.02
  0
LINE
  8
0
 10
-41.233
 11
-41.166
 20
241.02
 21
241.095
  0
LINE
  8
0
 10
-41.166
 11
-41.095
 20
241.095
 21
241.166
  0
LINE
  8
0
 10
-41.095
 11
-41.02
 20
241.166
 21
241.233
  0
LINE
  8
0
 10
-41.02
 11
-40.94
 20
241.233
 21
241.294
  0
LINE
  8
0
 10
-40.94
 11
-40.857
 20
241.294
 21
241.351
  0
LINE
  8
0
 10
-40.857
 11
-40.771
 20
241.351
 21
241.402
  0
LINE
  8
0
 10
-40.771
 11
-40.681
 20
241.402
 21
241.448
  0
LINE
  8
0
 10
-40.681
 11
-40.589
 20
241.448
 21
241.488
  0
LINE
  8
0
 10
-40.589
 11
-40.494
 20
241.488
 21
241.522
  0
LINE
  8
0
 10
-40.494
 11
-40.398
 20
241.522
 21
241.55
  0
LINE
  8
0
 10
-40.398
 11
-40.3
 20
241.55
 21
241.572
  0
LINE
  8
0
 10
-40.3
 11
-40.201
 20
241.572
 21
241.587
  0
LINE
  8
0
 10
-40.201
 11
-40.1
 20
241.587
 21
241.597
  0
LINE
  8
0
 10
-40.1
 11
-40
 20
241.597
 21
241.6
  0
LINE
  8
0
 10
-40
 11
-38.295
 20
241.6
 21
241.6
  0
LINE
  8
0
 10
-38.295
 11
-38.275
 20
241.6
 21
241.634
  0
LINE
  8
0
 10
-38.275
 11
-38.168
 20
241.634
 21
241.793
  0
LINE
  8
0
 10
-38.168
 11
-38.05
 20
241.793
 21
241.944
  0
LINE
  8
0
 10
-38.05
 11
-37.923
 20
241.944
 21
242.088
  0
LINE
  8
0
 10
-37.923
 11
-37.788
 20
242.088
 21
242.223
  0
LINE
  8
0
 10
-37.788
 11
-37.644
 20
242.223
 21
242.35
  0
LINE
  8
0
 10
-37.644
 11
-37.493
 20
242.35
 21
242.468
  0
LINE
  8
0
 10
-37.493
 11
-37.334
 20
242.468
 21
242.575
  0
LINE
  8
0
 10
-37.334
 11
-37.169
 20
242.575
 21
242.673
  0
LINE
  8
0
 10
-37.169
 11
-36.999
 20
242.673
 21
242.76
  0
LINE
  8
0
 10
-36.999
 11
-36.823
 20
242.76
 21
242.836
  0
LINE
  8
0
 10
-36.823
 11
-36.643
 20
242.836
 21
242.901
  0
LINE
  8
0
 10
-36.643
 11
-36.459
 20
242.901
 21
242.954
  0
LINE
  8
0
 10
-36.459
 11
-36.272
 20
242.954
 21
242.996
  0
LINE
  8
0
 10
-36.272
 11
-36.082
 20
242.996
 21
243.026
  0
LINE
  8
0
 10
-36.082
 11
-35.892
 20
243.026
 21
243.044
  0
LINE
  8
0
 10
-35.892
 11
-35.7
 20
243.044
 21
243.05
  0
LINE
  8
0
 10
-35.7
 11
-35.508
 20
243.05
 21
243.044
  0
LINE
  8
0
 10
-35.508
 11
-35.318
 20
243.044
 21
243.026
  0
LINE
  8
0
 10
-35.318
 11
-35.128
 20
243.026
 21
242.996
  0
LINE
  8
0
 10
-35.128
 11
-34.941
 20
242.996
 21
242.954
  0
LINE
  8
0
 10
-34.941
 11
-34.757
 20
242.954
 21
242.901
  0
LINE
  8
0
 10
-34.757
 11
-34.577
 20
242.901
 21
242.836
  0
LINE
  8
0
 10
-34.577
 11
-34.401
 20
242.836
 21
242.76
  0
LINE
  8
0
 10
-34.401
 11
-34.231
 20
242.76
 21
242.673
  0
LINE
  8
0
 10
-34.231
 11
-34.066
 20
242.673
 21
242.575
  0
LINE
  8
0
 10
-34.066
 11
-33.907
 20
242.575
 21
242.468
  0
LINE
  8
0
 10
-33.907
 11
-33.756
 20
242.468
 21
242.35
  0
LINE
  8
0
 10
-33.756
 11
-33.612
 20
242.35
 21
242.223
  0
LINE
  8
0
 10
-33.612
 11
-33.477
 20
242.223
 21
242.088
  0
LINE
  8
0
 10
-33.477
 11
-33.35
 20
242.088
 21
241.944
  0
LINE
  8
0
 10
-33.35
 11
-33.232
 20
241.944
 21
241.793
  0
LINE
  8
0
 10
-33.232
 11
-33.125
 20
241.793
 21
241.634
  0
LINE
  8
0
 10
-33.125
 11
-33.027
 20
241.634
 21
241.469
  0
LINE
  8
0
 10
-33.027
 11
-32.94
 20
241.469
 21
241.299
  0
LINE
  8
0
 10
-32.94
 11
-32.864
 20
241.299
 21
241.123
  0
LINE
  8
0
 10
-32.864
 11
-32.799
 20
241.123
 21
240.943
  0
LINE
  8
0
 10
-32.799
 11
-32.746
 20
240.943
 21
240.759
  0
LINE
  8
0
 10
-32.746
 11
-32.704
 20
240.759
 21
240.572
  0
LINE
  8
0
 10
-32.704
 11
-32.674
 20
240.572
 21
240.382
  0
LINE
  8
0
 10
-32.674
 11
-32.656
 20
240.382
 21
240.192
  0
LINE
  8
0
 10
-32.656
 11
-32.65
 20
240.192
 21
240
  0
LINE
  8
0
 10
-32.65
 11
-32.656
 20
240
 21
239.808
  0
LINE
  8
0
 10
-32.656
 11
-32.674
 20
239.808
 21
239.618
  0
LINE
  8
0
 10
-32.674
 11
-32.704
 20
239.618
 21
239.428
  0
LINE
  8
0
 10
-32.704
 11
-32.746
 20
239.428
 21
239.241
  0
LINE
  8
0
 10
-32.746
 11
-32.799
 20
239.241
 21
239.057
  0
LINE
  8
0
 10
-32.799
 11
-32.864
 20
239.057
 21
238.877
  0
LINE
  8
0
 10
-32.864
 11
-32.94
 20
238.877
 21
238.701
  0
LINE
  8
0
 10
-32.94
 11
-33.027
 20
238.701
 21
238.531
  0
LINE
  8
0
 10
-33.027
 11
-33.125
 20
238.531
 21
238.366
  0
LINE
  8
0
 10
-33.125
 11
-33.232
 20
238.366
 21
238.207
  0
LINE
  8
0
 10
-33.232
 11
-33.35
 20
238.207
 21
238.056
  0
LINE
  8
0
 10
-33.35
 11
-33.477
 20
238.056
 21
237.912
  0
LINE
  8
0
 10
-33.477
 11
-33.612
 20
237.912
 21
237.777
  0
LINE
  8
0
 10
-33.612
 11
-33.756
 20
237.777
 21
237.65
  0
LINE
  8
0
 10
-33.756
 11
-33.907
 20
237.65
 21
237.532
  0
LINE
  8
0
 10
-33.907
 11
-34.066
 20
237.532
 21
237.425
  0
LINE
  8
0
 10
-34.066
 11
-34.231
 20
237.425
 21
237.327
  0
LINE
  8
0
 10
-34.231
 11
-34.401
 20
237.327
 21
237.24
  0
LINE
  8
0
 10
-34.401
 11
-34.577
 20
237.24
 21
237.164
  0
LINE
  8
0
 10
-34.577
 11
-34.757
 20
237.164
 21
237.099
  0
LINE
  8
0
 10
-34.757
 11
-34.941
 20
237.099
 21
237.046
  0
LINE
  8
0
 10
-34.941
 11
-35.128
 20
237.046
 21
237.004
  0
LINE
  8
0
 10
-35.128
 11
-35.318
 20
237.004
 21
236.974
  0
LINE
  8
0
 10
-35.318
 11
-35.508
 20
236.974
 21
236.956
  0
LINE
  8
0
 10
-35.508
 11
-35.7
 20
236.956
 21
236.95
  0
LINE
  8
0
 10
-35.7
 11
-35.892
 20
236.95
 21
236.956
  0
LINE
  8
0
 10
-35.892
 11
-36.082
 20
236.956
 21
236.974
  0
LINE
  8
0
 10
-36.082
 11
-36.272
 20
236.974
 21
237.004
  0
LINE
  8
0
 10
-36.272
 11
-36.459
 20
237.004
 21
237.046
  0
LINE
  8
0
 10
-36.459
 11
-36.643
 20
237.046
 21
237.099
  0
LINE
  8
0
 10
-36.643
 11
-36.823
 20
237.099
 21
237.164
  0
LINE
  8
0
 10
-36.823
 11
-36.999
 20
237.164
 21
237.24
  0
LINE
  8
0
 10
-36.999
 11
-37.169
 20
237.24
 21
237.327
  0
LINE
  8
0
 10
-37.169
 11
-37.334
 20
237.327
 21
237.425
  0
LINE
  8
0
 10
-37.334
 11
-37.493
 20
237.425
 21
237.532
  0
LINE
  8
0
 10
-37.493
 11
-37.644
 20
237.532
 21
237.65
  0
LINE
  8
0
 10
-37.644
 11
-37.788
 20
237.65
 21
237.777
  0
LINE
  8
0
 10
-37.788
 11
-37.923
 20
237.777
 21
237.912
  0
LINE
  8
0
 10
-37.923
 11
-38.05
 20
237.912
 21
238.056
  0
LINE
  8
0
 10
-38.05
 11
-38.168
 20
238.056
 21
238.207
  0
LINE
  8
0
 10
-38.168
 11
-38.275
 20
238.207
 21
238.366
  0
LINE
  8
0
 10
-38.275
 11
-38.295
 20
238.366
 21
238.4
  0
LINE
  8
0
 10
-38.295
 11
-40
 20
238.4
 21
238.4
  0
LINE
  8
0
 10
-40
 11
-40.1
 20
238.4
 21
238.403
  0
LINE
  8
0
 10
-40.1
 11
-40.201
 20
238.403
 21
238.413
  0
LINE
  8
0
 10
-40.201
 11
-40.3
 20
238.413
 21
238.428
  0
LINE
  8
0
 10
-40.3
 11
-40.398
 20
238.428
 21
238.45
  0
LINE
  8
0
 10
-40.398
 11
-40.494
 20
238.45
 21
238.478
  0
LINE
  8
0
 10
-40.494
 11
-40.589
 20
238.478
 21
238.512
  0
LINE
  8
0
 10
-40.589
 11
-40.681
 20
238.512
 21
238.552
  0
LINE
  8
0
 10
-40.681
 11
-40.771
 20
238.552
 21
238.598
  0
LINE
  8
0
 10
-40.771
 11
-40.857
 20
238.598
 21
238.649
  0
LINE
  8
0
 10
-40.857
 11
-40.94
 20
238.649
 21
238.706
  0
LINE
  8
0
 10
-40.94
 11
-41.02
 20
238.706
 21
238.767
  0
LINE
  8
0
 10
-41.02
 11
-41.095
 20
238.767
 21
238.834
  0
LINE
  8
0
 10
-41.095
 11
-41.166
 20
238.834
 21
238.905
  0
LINE
  8
0
 10
-41.166
 11
-41.233
 20
238.905
 21
238.98
  0
LINE
  8
0
 10
-41.233
 11
-41.294
 20
238.98
 21
239.06
  0
LINE
  8
0
 10
-41.294
 11
-41.351
 20
239.06
 21
239.143
  0
LINE
  8
0
 10
-41.351
 11
-41.402
 20
239.143
 21
239.229
  0
LINE
  8
0
 10
-41.402
 11
-41.448
 20
239.229
 21
239.319
  0
LINE
  8
0
 10
-41.448
 11
-41.488
 20
239.319
 21
239.411
  0
LINE
  8
0
 10
-41.488
 11
-41.522
 20
239.411
 21
239.506
  0
LINE
  8
0
 10
-41.522
 11
-41.55
 20
239.506
 21
239.602
  0
LINE
  8
0
 10
-41.55
 11
-41.572
 20
239.602
 21
239.7
  0
LINE
  8
0
 10
-41.572
 11
-41.587
 20
239.7
 21
239.799
  0
LINE
  8
0
 10
-41.587
 11
-41.597
 20
239.799
 21
239.9
  0
LINE
  8
0
 10
-41.597
 11
-41.6
 20
239.9
 21
240
  0
LINE
  8
0
 10
10
 11
10
 20
580
 21
600
  0
LINE
  8
0
 10
10
 11
30
 20
600
 21
600
  0
LINE
  8
0
 10
30
 11
30
 20
600
 21
580
  0
LINE
  8
0
 10
30
 11
10
 20
580
 21
580
  0
LINE
  8
0
 10
25
 11
25.328
 20
30
 21
33.119
  0
LINE
  8
0
 10
25.328
 11
26.297
 20
33.119
 21
36.101
  0
LINE
  8
0
 10
26.297
 11
27.865
 20
36.101
 21
38.817
  0
LINE
  8
0
 10
27.865
 11
29.963
 20
38.817
 21
41.147
  0
LINE
  8
0
 10
29.963
 11
32.5
 20
41.147
 21
42.99
  0
LINE
  8
0
 10
32.5
 11
35.365
 20
42.99
 21
44.266
  0
LINE
  8
0
 10
35.365
 11
38.432
 20
44.266
 21
44.918
  0
LINE
  8
0
 10
38.432
 11
41.568
 20
44.918
 21
44.918
  0
LINE
  8
0
 10
41.568
 11
44.635
 20
44.918
 21
44.266
  0
LINE
  8
0
 10
44.635
 11
47.5
 20
44.266
 21
42.99
  0
LINE
  8
0
 10
47.5
 11
50.037
 20
42.99
 21
41.147
  0
LINE
  8
0
 10
50.037
 11
52.135
 20
41.147
 21
38.817
  0
LINE
  8
0
 10
52.135
 11
53.703
 20
38.817
 21
36.101
  0
LINE
  8
0
 10
53.703
 11
54.672
 20
36.101
 21
33.119
  0
LINE
  8
0
 10
54.672
 11
55
 20
33.119
 21
30
  0
LINE
  8
0
 10
55
 11
54.672
 20
30
 21
26.881
  0
LINE
  8
0
 10
54.672
 11
53.703
 20
26.881
 21
23.899
  0
LINE
  8
0
 10
53.703
 11
52.135
 20
23.899
 21
21.183
  0
LINE
  8
0
 10
52.135
 11
50.037
 20
21.183
 21
18.853
  0
LINE
  8
0
 10
50.037
 11
47.5
 20
18.853
 21
17.01
  0
LINE
  8
0
 10
47.5
 11
44.635
 20
17.01
 21
15.734
  0
LINE
  8
0
 10
44.635
 11
41.568
 20
15.734
 21
15.082
  0
LINE
  8
0
 10
41.568
 11
38.432
 20
15.082
 21
15.082
  0
LINE
  8
0
 10
38.432
 11
35.365
 20
15.082
 21
15.734
  0
LINE
  8
0
 10
35.365
 11
32.5
 20
15.734
 21
17.01
  0
LINE
  8
0
 10
32.5
 11
29.963
 20
17.01
 21
18.853
  0
LINE
  8
0
 10
29.963
 11
27.865
 20
18.853
 21
21.183
  0
LINE
  8
0
 10
27.865
 11
26.297
 20
21.183
 21
23.899
  0
LINE
  8
0
 10
26.297
 11
25.328
 20
23.899
 21
26.881
  0
LINE
  8
0
 10
25.328
 11
25
 20
26.881
 21
30
  0
LINE
  8
0
 10
38.4
 11
38.403
 20
220
 21
220.1
  0
LINE
  8
0
 10
38.403
 11
38.413
 20
220.1
 21
220.201
  0
LINE
  8
0
 10
38.413
 11
38.428
 20
220.201
 21
220.3
  0
LINE
  8
0
 10
38.428
 11
38.45
 20
220.3
 21
220.398
  0
LINE
  8
0
 10
38.45
 11
38.478
 20
220.398
 21
220.494
  0
LINE
  8
0
 10
38.478
 11
38.512
 20
220.494
 21
220.589
  0
LINE
  8
0
 10
38.512
 11
38.552
 20
220.589
 21
220.681
  0
LINE
  8
0
 10
38.552
 11
38.598
 20
220.681
 21
220.771
  0
LINE
  8
0
 10
38.598
 11
38.649
 20
220.771
 21
220.857
  0
LINE
  8
0
 10
38.649
 11
38.706
 20
220.857
 21
220.94
  0
LINE
  8
0
 10
38.706
 11
38.767
 20
220.94
 21
221.02
  0
LINE
  8
0
 10
38.767
 11
38.834
 20
221.02
 21
221.095
  0
LINE
  8
0
 10
38.834
 11
38.905
 20
221.095
 21
221.166
  0
LINE
  8
0
 10
38.905
 11
38.98
 20
221.166
 21
221.233
  0
LINE
  8
0
 10
38.98
 11
39.06
 20
221.233
 21
221.294
  0
LINE
  8
0
 10
39.06
 11
39.143
 20
221.294
 21
221.351
  0
LINE
  8
0
 10
39.143
 11
39.229
 20
221.351
 21
221.402
  0
LINE
  8
0
 10
39.229
 11
39.319
 20
221.402
 21
221.448
  0
LINE
  8
0
 10
39.319
 11
39.411
 20
221.448
 21
221.488
  0
LINE
  8
0
 10
39.411
 11
39.506
 20
221.488
 21
221.522
  0
LINE
  8
0
 10
39.506
 11
39.602
 20
221.522
 21
221.55
  0
LINE
  8
0
 10
39.602
 11
39.7
 20
221.55
 21
221.572
  0
LINE
  8
0
 10
39.7
 11
39.799
 20
221.572
 21
221.587
  0
LINE
  8
0
 10
39.799
 11
39.9
 20
221.587
 21
221.597
  0
LINE
  8
0
 10
39.9
 11
40
 20
221.597
 21
221.6
  0
LINE
  8
0
 10
40
 11
41.705
 20
221.6
 21
221.6
  0
LINE
  8
0
 10
41.705
 11
41.725
 20
221.6
 21
221.634
  0
LINE
  8
0
 10
41.725
 11
41.832
 20
221.634
 21
221.793
  0
LINE
  8
0
 10
41.832
 11
41.95
 20
221.793
 21
221.944
  0
LINE
  8
0
 10
41.95
 11
42.077
 20
221.944
 21
222.088
  0
LINE
  8
0
 10
42.077
 11
42.212
 20
222.088
 21
222.223
  0
LINE
  8
0
 10
42.212
 11
42.356
 20
222.223
 21
222.35
  0
LINE
  8
0
 10
42.356
 11
42.507
 20
222.35
 21
222.468
  0
LINE
  8
0
 10
42.507
 11
42.666
 20
222.468
 21
222.575
  0
LINE
  8
0
 10
42.666
 11
42.831
 20
222.575
 21
222.673
  0
LINE
  8
0
 10
42.831
 11
43.001
 20
222.673
 21
222.76
  0
LINE
  8
0
 10
43.001
 11
43.177
 20
222.76
 21
222.836
  0
LINE
  8
0
 10
43.177
 11
43.357
 20
222.836
 21
222.901
  0
LINE
  8
0
 10
43.357
 11
43.541
 20
222.901
 21
222.954
  0
LINE
  8
0
 10
43.541
 11
43.728
 20
222.954
 21
222.996
  0
LINE
  8
0
 10
43.728
 11
43.918
 20
222.996
 21
223.026
  0
LINE
  8
0
 10
43.918
 11
44.108
 20
223.026
 21
223.044
  0
LINE
  8
0
 10
44.108
 11
44.3
 20
223.044
 21
223.05
  0
LINE
  8
0
 10
44.3
 11
44.492
 20
223.05
 21
223.044
  0
LINE
  8
0
 10
44.492
 11
44.682
 20
223.044
 21
223.026
  0
LINE
  8
0
 10
44.682
 11
44.872
 20
223.026
 21
222.996
  0
LINE
  8
0
 10
44.872
 11
45.059
 20
222.996
 21
222.954
  0
LINE
  8
0
 10
45.059
 11
45.243
 20
222.954
 21
222.901
  0
LINE
  8
0
 10
45.243
 11
45.423
 20
222.901
 21
222.836
  0
LINE
  8
0
 10
45.423
 11
45.599
 20
222.836
 21
222.76
  0
LINE
  8
0
 10
45.599
 11
45.769
 20
222.76
 21
222.673
  0
LINE
  8
0
 10
45.769
 11
45.934
 20
222.673
 21
222.575
  0
LINE
  8
0
 10
45.934
 11
46.093
 20
222.575
 21
222.468
  0
LINE
  8
0
 10
46.093
 11
46.244
 20
222.468
 21
222.35
  0
LINE
  8
0
 10
46.244
 11
46.388
 20
222.35
 21
222.223
  0
LINE
  8
0
 10
46.388
 11
46.523
 20
222.223
 21
222.088
  0
LINE
  8
0
 10
46.523
 11
46.65
 20
222.088
 21
221.944
  0
LINE
  8
0
 10
46.65
 11
46.768
 20
221.944
 21
221.793
  0
LINE
  8
0
 10
46.768
 11
46.875
 20
221.793
 21
221.634
  0
LINE
  8
0
 10
46.875
 11
46.973
 20
221.634
 21
221.469
  0
LINE
  8
0
 10
46.973
 11
47.06
 20
221.469
 21
221.299
  0
LINE
  8
0
 10
47.06
 11
47.136
 20
221.299
 21
221.123
  0
LINE
  8
0
 10
47.136
 11
47.201
 20
221.123
 21
220.943
  0
LINE
  8
0
 10
47.201
 11
47.254
 20
220.943
 21
220.759
  0
LINE
  8
0
 10
47.254
 11
47.296
 20
220.759
 21
220.572
  0
LINE
  8
0
 10
47.296
 11
47.326
 20
220.572
 21
220.382
  0
LINE
  8
0
 10
47.326
 11
47.344
 20
220.382
 21
220.192
  0
LINE
  8
0
 10
47.344
 11
47.35
 20
220.192
 21
220
  0
LINE
  8
0
 10
47.35
 11
47.344
 20
220
 21
219.808
  0
LINE
  8
0
 10
47.344
 11
47.326
 20
219.808
 21
219.618
  0
LINE
  8
0
 10
47.326
 11
47.296
 20
219.618
 21
219.428
  0
LINE
  8
0
 10
47.296
 11
47.254
 20
219.428
 21
219.241
  0
LINE
  8
0
 10
47.254
 11
47.201
 20
219.241
 21
219.057
  0
LINE
  8
0
 10
47.201
 11
47.136
 20
219.057
 21
218.877
  0
LINE
  8
0
 10
47.136
 11
47.06
 20
218.877
 21
218.701
  0
LINE
  8
0
 10
47.06
 11
46.973
 20
218.701
 21
218.531
  0
LINE
  8
0
 10
46.973
 11
46.875
 20
218.531
 21
218.366
  0
LINE
  8
0
 10
46.875
 11
46.768
 20
218.366
 21
218.207
  0
LINE
  8
0
 10
46.768
 11
46.65
 20
218.207
 21
218.056
  0
LINE
  8
0
 10
46.65
 11
46.523
 20
218.056
 21
217.912
  0
LINE
  8
0
 10
46.523
 11
46.388
 20
217.912
 21
217.777
  0
LINE
  8
0
 10
46.388
 11
46.244
 20
217.777
 21
217.65
  0
LINE
  8
0
 10
46.244
 11
46.093
 20
217.65
 21
217.532
  0
LINE
  8
0
 10
46.093
 11
45.934
 20
217.532
 21
217.425
  0
LINE
  8
0
 10
45.934
 11
45.769
 20
217.425
 21
217.327
  0
LINE
  8
0
 10
45.769
 11
45.599
 20
217.327
 21
217.24
  0
LINE
  8
0
 10
45.599
 11
45.423
 20
217.24
 21
217.164
  0
LINE
  8
0
 10
45.423
 11
45.243
 20
217.164
 21
217.099
  0
LINE
  8
0
 10
45.243
 11
45.059
 20
217.099
 21
217.046
  0
LINE
  8
0
 10
45.059
 11
44.872
 20
217.046
 21
217.004
  0
LINE
  8
0
 10
44.872
 11
44.682
 20
217.004
 21
216.974
  0
LINE
  8
0
 10
44.682
 11
44.492
 20
216.974
 21
216.956
  0
LINE
  8
0
 10
44.492
 11
44.3
 20
216.956
 21
216.95
  0
LINE
  8
0
 10
44.3
 11
44.108
 20
216.95
 21
216.956
  0
LINE
  8
0
 10
44.108
 11
43.918
 20
216.956
 21
216.974
  0
LINE
  8
0
 10
43.918
 11
43.728
 20
216.974
 21
217.004
  0
LINE
  8
0
 10
43.728
 11
43.541
 20
217.004
 21
217.046
  0
LINE
  8
0
 10
43.541
 11
43.357
 20
217.046
 21
217.099
  0
LINE
  8
0
 10
43.357
 11
43.177
 20
217.099
 21
217.164
  0
LINE
  8
0
 10
43.177
 11
43.001
 20
217.164
 21
217.24
  0
LINE
  8
0
 10
43.001
 11
42.831
 20
217.24
 21
217.327
  0
LINE
  8
0
 10
42.831
 11
42.666
 20
217.327
 21
217.425
  0
LINE
  8
0
 10
42.666
 11
42.507
 20
217.425
 21
217.532
  0
LINE
  8
0
 10
42.507
 11
42.356
 20
217.532
 21
217.65
  0
LINE
  8
0
 10
42.356
 11
42.212
 20
217.65
 21
217.777
  0
LINE
  8
0
 10
42.212
 11
42.077
 20
217.777
 21
217.912
  0
LINE
  8
0
 10
42.077
 11
41.95
 20
217.912
 21
218.056
  0
LINE
  8
0
 10
41.95
 11
41.832
 20
218.056
 21
218.207
  0
LINE
  8
0
 10
41.832
 11
41.725
 20
218.207
 21
218.366
  0
LINE
  8
0
 10
41.725
 11
41.705
 20
218.366
 21
218.4
  0
LINE
  8
0
 10
41.705
 11
40
 20
218.4
 21
218.4
  0
LINE
  8
0
 10
40
 11
39.9
 20
218.4
 21
218.403
  0
LINE
  8
0
 10
39.9
 11
39.799
 20
218.403
 21
218.413
  0
LINE
  8
0
 10
39.799
 11
39.7
 20
218.413
 21
218.428
  0
LINE
  8
0
 10
39.7
 11
39.602
 20
218.428
 21
218.45
  0
LINE
  8
0
 10
39.602
 11
39.506
 20
218.45
 21
218.478
  0
LINE
  8
0
 10
39.506
 11
39.411
 20
218.478
 21
218.512
  0
LINE
  8
0
 10
39.411
 11
39.319
 20
218.512
 21
218.552
  0
LINE
  8
0
 10
39.319
 11
39.229
 20
218.552
 21
218.598
  0
LINE
  8
0
 10
39.229
 11
39.143
 20
218.598
 21
218.649
  0
LINE
  8
0
 10
39.143
 11
39.06
 20
218.649
 21
218.706
  0
LINE
  8
0
 10
39.06
 11
38.98
 20
218.706
 21
218.767
  0
LINE
  8
0
 10
38.98
 11
38.905
 20
218.767
 21
218.834
  0
LINE
  8
0
 10
38.905
 11
38.834
 20
218.834
 21
218.905
  0
LINE
  8
0
 10
38.834
 11
38.767
 20
218.905
 21
218.98
  0
LINE
  8
0
 10
38.767
 11
38.706
 20
218.98
 21
219.06
  0
LINE
  8
0
 10
38.706
 11
38.649
 20
219.06
 21
219.143
  0
LINE
  8
0
 10
38.649
 11
38.598
 20
219.143
 21
219.229
  0
LINE
  8
0
 10
38.598
 11
38.552
 20
219.229
 21
219.319
  0
LINE
  8
0
 10
38.552
 11
38.512
 20
219.319
 21
219.411
  0
LINE
  8
0
 10
38.512
 11
38.478
 20
219.411
 21
219.506
  0
LINE
  8
0
 10
38.478
 11
38.45
 20
219.506
 21
219.602
  0
LINE
  8
0
 10
38.45
 11
38.428
 20
219.602
 21
219.7
  0
LINE
  8
0
 10
38.428
 11
38.413
 20
219.7
 21
219.799
  0
LINE
  8
0
 10
38.413
 11
38.403
 20
219.799
 21
219.9
  0
LINE
  8
0
 10
38.403
 11
38.4
 20
219.9
 21
220
  0
LINE
  8
0
 10
76.825
 11
78.412
 20
-80
 21
-77.25
  0
LINE
  8
0
 10
78.412
 11
81.588
 20
-77.25
 21
-77.25
  0
LINE
  8
0
 10
81.588
 11
83.175
 20
-77.25
 21
-80
  0
LINE
  8
0
 10
83.175
 11
81.588
 20
-80
 21
-82.75
  0
LINE
  8
0
 10
81.588
 11
78.412
 20
-82.75
 21
-82.75
  0
LINE
  8
0
 10
78.412
 11
76.825
 20
-82.75
 21
-80
  0
LINE
  8
0
 10
76.825
 11
78.412
 20
80
 21
82.75
  0
LINE
  8
0
 10
78.412
 11
81.588
 20
82.75
 21
82.75
  0
LINE
  8
0
 10
81.588
 11
83.175
 20
82.75
 21
80
  0
LINE
  8
0
 10
83.175
 11
81.588
 20
80
 21
77.25
  0
LINE
  8
0
 10
81.588
 11
78.412
 20
77.25
 21
77.25
  0
LINE
  8
0
 10
78.412
 11
76.825
 20
77.25
 21
80
  0
LINE
  8
0
 10
76.825
 11
78.412
 20
110
 21
112.75
  0
LINE
  8
0
 10
78.412
 11
81.588
 20
112.75
 21
112.75
  0
LINE
  8
0
 10
81.588
 11
83.175
 20
112.75
 21
110
  0
LINE
  8
0
 10
83.175
 11
81.588
 20
110
 21
107.25
  0
LINE
  8
0
 10
81.588
 11
78.412
 20
107.25
 21
107.25
  0
LINE
  8
0
 10
78.412
 11
76.825
 20
107.25
 21
110
  0
LINE
  8
0
 10
76.825
 11
78.412
 20
270
 21
272.75
  0
LINE
  8
0
 10
78.412
 11
81.588
 20
272.75
 21
272.75
  0
LINE
  8
0
 10
81.588
 11
83.175
 20
272.75
 21
270
  0
LINE
  8
0
 10
83.175
 11
81.588
 20
270
 21
267.25
  0
LINE
  8
0
 10
81.588
 11
78.412
 20
267.25
 21
267.25
  0
LINE
  8
0
 10
78.412
 11
76.825
 20
267.25
 21
270
  0
LINE
  8
0
 10
76.825
 11
78.412
 20
300
 21
302.75
  0
LINE
  8
0
 10
78.412
 11
81.588
 20
302.75
 21
302.75
  0
LINE
  8
0
 10
81.588
 11
83.175
 20
302.75
 21
300
  0
LINE
  8
0
 10
83.175
 11
81.588
 20
300
 21
297.25
  0
LINE
  8
0
 10
81.588
 11
78.412
 20
297.25
 21
297.25
  0
LINE
  8
0
 10
78.412
 11
76.825
 20
297.25
 21
300
  0
LINE
  8
0
 10
76.825
 11
78.412
 20
460
 21
462.75
  0
LINE
  8
0
 10
78.412
 11
81.588
 20
462.75
 21
462.75
  0
LINE
  8
0
 10
81.588
 11
83.175
 20
462.75
 21
460
  0
LINE
  8
0
 10
83.175
 11
81.588
 20
460
 21
457.25
  0
LINE
  8
0
 10
81.588
 11
78.412
 20
457.25
 21
457.25
  0
LINE
  8
0
 10
78.412
 11
76.825
 20
457.25
 21
460
  0
LINE
  8
0
 10
78.4
 11
79.2
 20
490
 21
491.386
  0
LINE
  8
0
 10
79.2
 11
80.8
 20
491.386
 21
491.386
  0
LINE
  8
0
 10
80.8
 11
81.6
 20
491.386
 21
490
  0
LINE
  8
0
 10
81.6
 11
80.8
 20
490
 21
488.614
  0
LINE
  8
0
 10
80.8
 11
79.2
 20
488.614
 21
488.614
  0
LINE
  8
0
 10
79.2
 11
78.4
 20
488.614
 21
490
  0
LINE
  8
0
 10
78.4
 11
79.2
 20
650
 21
651.386
  0
LINE
  8
0
 10
79.2
 11
80.8
 20
651.386
 21
651.386
  0
LINE
  8
0
 10
80.8
 11
81.6
 20
651.386
 21
650
  0
LINE
  8
0
 10
81.6
 11
80.8
 20
650
 21
648.614
  0
LINE
  8
0
 10
80.8
 11
79.2
 20
648.614
 21
648.614
  0
LINE
  8
0
 10
79.2
 11
78.4
 20
648.614
 21
650
  0
LINE
  8
0
 10
100
 11
100
 20
-85
 21
85
  0
LINE
  8
0
 10
100
 11
100.381
 20
85
 21
86.913
  0
LINE
  8
0
 10
100.381
 11
101.464
 20
86.913
 21
88.536
  0
LINE
  8
0
 10
101.464
 11
103.087
 20
88.536
 21
89.619
  0
LINE
  8
0
 10
103.087
 11
105
 20
89.619
 21
90
  0
LINE
  8
0
 10
105
 11
275
 20
90
 21
90
  0
LINE
  8
0
 10
275
 11
276.913
 20
90
 21
89.619
  0
LINE
  8
0
 10
276.913
 11
278.536
 20
89.619
 21
88.536
  0
LINE
  8
0
 10
278.536
 11
279.619
 20
88.536
 21
86.913
  0
LINE
  8
0
 10
279.619
 11
280
 20
86.913
 21
85
  0
LINE
  8
0
 10
280
 11
280
 20
85
 21
-85
  0
LINE
  8
0
 10
280
 11
279.619
 20
-85
 21
-86.913
  0
LINE
  8
0
 10
279.619
 11
278.536
 20
-86.913
 21
-88.536
  0
LINE
  8
0
 10
278.536
 11
276.913
 20
-88.536
 21
-89.619
  0
LINE
  8
0
 10
276.913
 11
275
 20
-89.619
 21
-90
  0
LINE
  8
0
 10
275
 11
105
 20
-90
 21
-90
  0
LINE
  8
0
 10
105
 11
103.087
 20
-90
 21
-89.619
  0
LINE
  8
0
 10
103.087
 11
101.464
 20
-89.619
 21
-88.536
  0
LINE
  8
0
 10
101.464
 11
100.381
 20
-88.536
 21
-86.913
  0
LINE
  8
0
 10
100.381
 11
100
 20
-86.913
 21
-85
  0
LINE
  8
0
 10
100
 11
100
 20
295
 21
465
  0
LINE
  8
0
 10
100
 11
100.381
 20
465
 21
466.913
  0
LINE
  8
0
 10
100.381
 11
101.464
 20
466.913
 21
468.536
  0
LINE
  8
0
 10
101.464
 11
103.087
 20
468.536
 21
469.619
  0
LINE
  8
0
 10
103.087
 11
105
 20
469.619
 21
470
  0
LINE
  8
0
 10
105
 11
275
 20
470
 21
470
  0
LINE
  8
0
 10
275
 11
276.913
 20
470
 21
469.619
  0
LINE
  8
0
 10
276.913
 11
278.536
 20
469.619
 21
468.536
  0
LINE
  8
0
 10
278.536
 11
279.619
 20
468.536
 21
466.913
  0
LINE
  8
0
 10
279.619
 11
280
 20
466.913
 21
465
  0
LINE
  8
0
 10
280
 11
280
 20
465
 21
295
  0
LINE
  8
0
 10
280
 11
279.619
 20
295
 21
293.087
  0
LINE
  8
0
 10
279.619
 11
278.536
 20
293.087
 21
291.464
  0
LINE
  8
0
 10
278.536
 11
276.913
 20
291.464
 21
290.381
  0
LINE
  8
0
 10
276.913
 11
275
 20
290.381
 21
290
  0
LINE
  8
0
 10
275
 11
105
 20
290
 21
290
  0
LINE
  8
0
 10
105
 11
103.087
 20
290
 21
290.381
  0
LINE
  8
0
 10
103.087
 11
101.464
 20
290.381
 21
291.464
  0
LINE
  8
0
 10
101.464
 11
100.381
 20
291.464
 21
293.087
  0
LINE
  8
0
 10
100.381
 11
100
 20
293.087
 21
295
  0
LINE
  8
0
 10
106.825
 11
108.412
 20
-80
 21
-77.25
  0
LINE
  8
0
 10
108.412
 11
111.588
 20
-77.25
 21
-77.25
  0
LINE
  8
0
 10
111.588
 11
113.175
 20
-77.25
 21
-80
  0
LINE
  8
0
 10
113.175
 11
111.588
 20
-80
 21
-82.75
  0
LINE
  8
0
 10
111.588
 11
108.412
 20
-82.75
 21
-82.75
  0
LINE
  8
0
 10
108.412
 11
106.825
 20
-82.75
 21
-80
  0
LINE
  8
0
 10
106.825
 11
108.412
 20
80
 21
82.75
  0
LINE
  8
0
 10
108.412
 11
111.588
 20
82.75
 21
82.75
  0
LINE
  8
0
 10
111.588
 11
113.175
 20
82.75
 21
80
  0
LINE
  8
0
 10
113.175
 11
111.588
 20
80
 21
77.25
  0
LINE
  8
0
 10
111.588
 11
108.412
 20
77.25
 21
77.25
  0
LINE
  8
0
 10
108.412
 11
106.825
 20
77.25
 21
80
  0
LINE
  8
0
 10
108.4
 11
109.2
 20
300
 21
301.386
  0
LINE
  8
0
 10
109.2
 11
110.8
 20
301.386
 21
301.386
  0
LINE
  8
0
 10
110.8
 11
111.6
 20
301.386
 21
300
  0
LINE
  8
0
 10
111.6
 11
110.8
 20
300
 21
298.614
  0
LINE
  8
0
 10
110.8
 11
109.2
 20
298.614
 21
298.614
  0
LINE
  8
0
 10
109.2
 11
108.4
 20
298.614
 21
300
  0
LINE
  8
0
 10
108.4
 11
109.2
 20
460
 21
461.386
  0
LINE
  8
0
 10
109.2
 11
110.8
 20
461.386
 21
461.386
  0
LINE
  8
0
 10
110.8
 11
111.6
 20
461.386
 21
460
  0
LINE
  8
0
 10
111.6
 11
110.8
 20
460
 21
458.614
  0
LINE
  8
0
 10
110.8
 11
109.2
 20
458.614
 21
458.614
  0
LINE
  8
0
 10
109.2
 11
108.4
 20
458.614
 21
460
  0
LINE
  8
0
 10
125
 11
125.328
 20
-50
 21
-46.881
  0
LINE
  8
0
 10
125.328
 11
126.297
 20
-46.881
 21
-43.899
  0
LINE
  8
0
 10
126.297
 11
127.865
 20
-43.899
 21
-41.183
  0
LINE
  8
0
 10
127.865
 11
129.963
 20
-41.183
 21
-38.853
  0
LINE
  8
0
 10
129.963
 11
132.5
 20
-38.853
 21
-37.01
  0
LINE
  8
0
 10
132.5
 11
135.365
 20
-37.01
 21
-35.734
  0
LINE
  8
0
 10
135.365
 11
138.432
 20
-35.734
 21
-35.082
  0
LINE
  8
0
 10
138.432
 11
141.568
 20
-35.082
 21
-35.082
  0
LINE
  8
0
 10
141.568
 11
144.635
 20
-35.082
 21
-35.734
  0
LINE
  8
0
 10
144.635
 11
147.5
 20
-35.734
 21
-37.01
  0
LINE
  8
0
 10
147.5
 11
150.037
 20
-37.01
 21
-38.853
  0
LINE
  8
0
 10
150.037
 11
152.135
 20
-38.853
 21
-41.183
  0
LINE
  8
0
 10
152.135
 11
153.703
 20
-41.183
 21
-43.899
  0
LINE
  8
0
 10
153.703
 11
154.672
 20
-43.899
 21
-46.881
  0
LINE
  8
0
 10
154.672
 11
155
 20
-46.881
 21
-50
  0
LINE
  8
0
 10
155
 11
154.672
 20
-50
 21
-53.119
  0
LINE
  8
0
 10
154.672
 11
153.703
 20
-53.119
 21
-56.101
  0
LINE
  8
0
 10
153.703
 11
152.135
 20
-56.101
 21
-58.817
  0
LINE
  8
0
 10
152.135
 11
150.037
 20
-58.817
 21
-61.147
  0
LINE
  8
0
 10
150.037
 11
147.5
 20
-61.147
 21
-62.99
  0
LINE
  8
0
 10
147.5
 11
144.635
 20
-62.99
 21
-64.266
  0
LINE
  8
0
 10
144.635
 11
141.568
 20
-64.266
 21
-64.918
  0
LINE
  8
0
 10
141.568
 11
138.432
 20
-64.918
 21
-64.918
  0
LINE
  8
0
 10
138.432
 11
135.365
 20
-64.918
 21
-64.266
  0
LINE
  8
0
 10
135.365
 11
132.5
 20
-64.266
 21
-62.99
  0
LINE
  8
0
 10
132.5
 11
129.963
 20
-62.99
 21
-61.147
  0
LINE
  8
0
 10
129.963
 11
127.865
 20
-61.147
 21
-58.817
  0
LINE
  8
0
 10
127.865
 11
126.297
 20
-58.817
 21
-56.101
  0
LINE
  8
0
 10
126.297
 11
125.328
 20
-56.101
 21
-53.119
  0
LINE
  8
0
 10
125.328
 11
125
 20
-53.119
 21
-50
  0
LINE
  8
0
 10
125
 11
125
 20
320
 21
440
  0
LINE
  8
0
 10
125
 11
125.381
 20
440
 21
441.913
  0
LINE
  8
0
 10
125.381
 11
126.464
 20
441.913
 21
443.536
  0
LINE
  8
0
 10
126.464
 11
128.087
 20
443.536
 21
444.619
  0
LINE
  8
0
 10
128.087
 11
130
 20
444.619
 21
445
  0
LINE
  8
0
 10
130
 11
250
 20
445
 21
445
  0
LINE
  8
0
 10
250
 11
251.913
 20
445
 21
444.619
  0
LINE
  8
0
 10
251.913
 11
253.536
 20
444.619
 21
443.536
  0
LINE
  8
0
 10
253.536
 11
254.619
 20
443.536
 21
441.913
  0
LINE
  8
0
 10
254.619
 11
255
 20
441.913
 21
440
  0
LINE
  8
0
 10
255
 11
255
 20
440
 21
320
  0
LINE
  8
0
 10
255
 11
254.619
 20
320
 21
318.087
  0
LINE
  8
0
 10
254.619
 11
253.536
 20
318.087
 21
316.464
  0
LINE
  8
0
 10
253.536
 11
251.913
 20
316.464
 21
315.381
  0
LINE
  8
0
 10
251.913
 11
250
 20
315.381
 21
315
  0
LINE
  8
0
 10
250
 11
130
 20
315
 21
315
  0
LINE
  8
0
 10
130
 11
128.087
 20
315
 21
315.381
  0
LINE
  8
0
 10
128.087
 11
126.464
 20
315.381
 21
316.464
  0
LINE
  8
0
 10
126.464
 11
125.381
 20
316.464
 21
318.087
  0
LINE
  8
0
 10
125.381
 11
125
 20
318.087
 21
320
  0
LINE
  8
0
 10
135
 11
135.328
 20
50
 21
53.119
  0
LINE
  8
0
 10
135.328
 11
136.297
 20
53.119
 21
56.101
  0
LINE
  8
0
 10
136.297
 11
137.865
 20
56.101
 21
58.817
  0
LINE
  8
0
 10
137.865
 11
139.963
 20
58.817
 21
61.147
  0
LINE
  8
0
 10
139.963
 11
142.5
 20
61.147
 21
62.99
  0
LINE
  8
0
 10
142.5
 11
145.365
 20
62.99
 21
64.266
  0
LINE
  8
0
 10
145.365
 11
148.432
 20
64.266
 21
64.918
  0
LINE
  8
0
 10
148.432
 11
151.568
 20
64.918
 21
64.918
  0
LINE
  8
0
 10
151.568
 11
154.635
 20
64.918
 21
64.266
  0
LINE
  8
0
 10
154.635
 11
157.5
 20
64.266
 21
62.99
  0
LINE
  8
0
 10
157.5
 11
160.037
 20
62.99
 21
61.147
  0
LINE
  8
0
 10
160.037
 11
162.135
 20
61.147
 21
58.817
  0
LINE
  8
0
 10
162.135
 11
163.703
 20
58.817
 21
56.101
  0
LINE
  8
0
 10
163.703
 11
164.672
 20
56.101
 21
53.119
  0
LINE
  8
0
 10
164.672
 11
165
 20
53.119
 21
50
  0
LINE
  8
0
 10
165
 11
164.672
 20
50
 21
46.881
  0
LINE
  8
0
 10
164.672
 11
163.703
 20
46.881
 21
43.899
  0
LINE
  8
0
 10
163.703
 11
162.135
 20
43.899
 21
41.183
  0
LINE
  8
0
 10
162.135
 11
160.037
 20
41.183
 21
38.853
  0
LINE
  8
0
 10
160.037
 11
157.5
 20
38.853
 21
37.01
  0
LINE
  8
0
 10
157.5
 11
154.635
 20
37.01
 21
35.734
  0
LINE
  8
0
 10
154.635
 11
151.568
 20
35.734
 21
35.082
  0
LINE
  8
0
 10
151.568
 11
148.432
 20
35.082
 21
35.082
  0
LINE
  8
0
 10
148.432
 11
145.365
 20
35.082
 21
35.734
  0
LINE
  8
0
 10
145.365
 11
142.5
 20
35.734
 21
37.01
  0
LINE
  8
0
 10
142.5
 11
139.963
 20
37.01
 21
38.853
  0
LINE
  8
0
 10
139.963
 11
137.865
 20
38.853
 21
41.183
  0
LINE
  8
0
 10
137.865
 11
136.297
 20
41.183
 21
43.899
  0
LINE
  8
0
 10
136.297
 11
135.328
 20
43.899
 21
46.881
  0
LINE
  8
0
 10
135.328
 11
135
 20
46.881
 21
50
  0
LINE
  8
0
 10
215
 11
215.328
 20
30
 21
33.119
  0
LINE
  8
0
 10
215.328
 11
216.297
 20
33.119
 21
36.101
  0
LINE
  8
0
 10
216.297
 11
217.865
 20
36.101
 21
38.817
  0
LINE
  8
0
 10
217.865
 11
219.963
 20
38.817
 21
41.147
  0
LINE
  8
0
 10
219.963
 11
222.5
 20
41.147
 21
42.99
  0
LINE
  8
0
 10
222.5
 11
225.365
 20
42.99
 21
44.266
  0
LINE
  8
0
 10
225.365
 11
228.432
 20
44.266
 21
44.918
  0
LINE
  8
0
 10
228.432
 11
231.568
 20
44.918
 21
44.918
  0
LINE
  8
0
 10
231.568
 11
234.635
 20
44.918
 21
44.266
  0
LINE
  8
0
 10
234.635
 11
237.5
 20
44.266
 21
42.99
  0
LINE
  8
0
 10
237.5
 11
240.037
 20
42.99
 21
41.147
  0
LINE
  8
0
 10
240.037
 11
242.135
 20
41.147
 21
38.817
  0
LINE
  8
0
 10
242.135
 11
243.703
 20
38.817
 21
36.101
  0
LINE
  8
0
 10
243.703
 11
244.672
 20
36.101
 21
33.119
  0
LINE
  8
0
 10
244.672
 11
245
 20
33.119
 21
30
  0
LINE
  8
0
 10
245
 11
244.672
 20
30
 21
26.881
  0
LINE
  8
0
 10
244.672
 11
243.703
 20
26.881
 21
23.899
  0
LINE
  8
0
 10
243.703
 11
242.135
 20
23.899
 21
21.183
  0
LINE
  8
0
 10
242.135
 11
240.037
 20
21.183
 21
18.853
  0
LINE
  8
0
 10
240.037
 11
237.5
 20
18.853
 21
17.01
  0
LINE
  8
0
 10
237.5
 11
234.635
 20
17.01
 21
15.734
  0
LINE
  8
0
 10
234.635
 11
231.568
 20
15.734
 21
15.082
  0
LINE
  8
0
 10
231.568
 11
228.432
 20
15.082
 21
15.082
  0
LINE
  8
0
 10
228.432
 11
225.365
 20
15.082
 21
15.734
  0
LINE
  8
0
 10
225.365
 11
222.5
 20
15.734
 21
17.01
  0
LINE
  8
0
 10
222.5
 11
219.963
 20
17.01
 21
18.853
  0
LINE
  8
0
 10
219.963
 11
217.865
 20
18.853
 21
21.183
  0
LINE
  8
0
 10
217.865
 11
216.297
 20
21.183
 21
23.899
  0
LINE
  8
0
 10
216.297
 11
215.328
 20
23.899
 21
26.881
  0
LINE
  8
0
 10
215.328
 11
215
 20
26.881
 21
30
  0
LINE
  8
0
 10
266.825
 11
268.412
 20
-80
 21
-77.25
  0
LINE
  8
0
 10
268.412
 11
271.588
 20
-77.25
 21
-77.25
  0
LINE
  8
0
 10
271.588
 11
273.175
 20
-77.25
 21
-80
  0
LINE
  8
0
 10
273.175
 11
271.588
 20
-80
 21
-82.75
  0
LINE
  8
0
 10
271.588
 11
268.412
 20
-82.75
 21
-82.75
  0
LINE
  8
0
 10
268.412
 11
266.825
 20
-82.75
 21
-80
  0
LINE
  8
0
 10
266.825
 11
268.412
 20
80
 21
82.75
  0
LINE
  8
0
 10
268.412
 11
271.588
 20
82.75
 21
82.75
  0
LINE
  8
0
 10
271.588
 11
273.175
 20
82.75
 21
80
  0
LINE
  8
0
 10
273.175
 11
271.588
 20
80
 21
77.25
  0
LINE
  8
0
 10
271.588
 11
268.412
 20
77.25
 21
77.25
  0
LINE
  8
0
 10
268.412
 11
266.825
 20
77.25
 21
80
  0
LINE
  8
0
 10
268.4
 11
269.2
 20
300
 21
301.386
  0
LINE
  8
0
 10
269.2
 11
270.8
 20
301.386
 21
301.386
  0
LINE
  8
0
 10
270.8
 11
271.6
 20
301.386
 21
300
  0
LINE
  8
0
 10
271.6
 11
270.8
 20
300
 21
298.614
  0
LINE
  8
0
 10
270.8
 11
269.2
 20
298.614
 21
298.614
  0
LINE
  8
0
 10
269.2
 11
268.4
 20
298.614
 21
300
  0
LINE
  8
0
 10
268.4
 11
269.2
 20
460
 21
461.386
  0
LINE
  8
0
 10
269.2
 11
270.8
 20
461.386
 21
461.386
  0
LINE
  8
0
 10
270.8
 11
271.6
 20
461.386
 21
460
  0
LINE
  8
0
 10
271.6
 11
270.8
 20
460
 21
458.614
  0
LINE
  8
0
 10
270.8
 11
269.2
 20
458.614
 21
458.614
  0
LINE
  8
0
 10
269.2
 11
268.4
 20
458.614
 21
460
  0
LINE
  8
0
 10
290
 11
290
 20
295
 21
465
  0
LINE
  8
0
 10
290
 11
290.381
 20
465
 21
466.913
  0
LINE
  8
0
 10
290.381
 11
291.464
 20
466.913
 21
468.536
  0
LINE
  8
0
 10
291.464
 11
293.087
 20
468.536
 21
469.619
  0
LINE
  8
0
 10
293.087
 11
295
 20
469.619
 21
470
  0
LINE
  8
0
 10
295
 11
465
 20
470
 21
470
  0
LINE
  8
0
 10
465
 11
466.913
 20
470
 21
469.619
  0
LINE
  8
0
 10
466.913
 11
468.536
 20
469.619
 21
468.536
  0
LINE
  8
0
 10
468.536
 11
469.619
 20
468.536
 21
466.913
  0
LINE
  8
0
 10
469.619
 11
470
 20
466.913
 21
465
  0
LINE
  8
0
 10
470
 11
470
 20
465
 21
295
  0
LINE
  8
0
 10
470
 11
469.619
 20
295
 21
293.087
  0
LINE
  8
0
 10
469.619
 11
468.536
 20
293.087
 21
291.464
  0
LINE
  8
0
 10
468.536
 11
466.913
 20
291.464
 21
290.381
  0
LINE
  8
0
 10
466.913
 11
465
 20
290.381
 21
290
  0
LINE
  8
0
 10
465
 11
295
 20
290
 21
290
  0
LINE
  8
0
 10
295
 11
293.087
 20
290
 21
290.381
  0
LINE
  8
0
 10
293.087
 11
291.464
 20
290.381
 21
291.464
  0
LINE
  8
0
 10
291.464
 11
290.381
 20
291.464
 21
293.087
  0
LINE
  8
0
 10
290.381
 11
290
 20
293.087
 21
295
  0
LINE
  8
0
 10
298.4
 11
299.2
 20
300
 21
301.386
  0
LINE
  8
0
 10
299.2
 11
300.8
 20
301.386
 21
301.386
  0
LINE
  8
0
 10
300.8
 11
301.6
 20
301.386
 21
300
  0
LINE
  8
0
 10
301.6
 11
300.8
 20
300
 21
298.614
  0
LINE
  8
0
 10
300.8
 11
299.2
 20
298.614
 21
298.614
  0
LINE
  8
0
 10
299.2
 11
298.4
 20
298.614
 21
300
  0
LINE
  8
0
 10
298.4
 11
299.2
 20
460
 21
461.386
  0
LINE
  8
0
 10
299.2
 11
300.8
 20
461.386
 21
461.386
  0
LINE
  8
0
 10
300.8
 11
301.6
 20
461.386
 21
460
  0
LINE
  8
0
 10
301.6
 11
300.8
 20
460
 21
458.614
  0
LINE
  8
0
 10
300.8
 11
299.2
 20
458.614
 21
458.614
  0
LINE
  8
0
 10
299.2
 11
298.4
 20
458.614
 21
460
  0
LINE
  8
0
 10
315
 11
315
 20
320
 21
440
  0
LINE
  8
0
 10
315
 11
315.381
 20
440
 21
441.913
  0
LINE
  8
0
 10
315.381
 11
316.464
 20
441.913
 21
443.536
  0
LINE
  8
0
 10
316.464
 11
318.087
 20
443.536
 21
444.619
  0
LINE
  8
0
 10
318.087
 11
320
 20
444.619
 21
445
  0
LINE
  8
0
 10
320
 11
440
 20
445
 21
445
  0
LINE
  8
0
 10
440
 11
441.913
 20
445
 21
444.619
  0
LINE
  8
0
 10
441.913
 11
443.536
 20
444.619
 21
443.536
  0
LINE
  8
0
 10
443.536
 11
444.619
 20
443.536
 21
441.913
  0
LINE
  8
0
 10
444.619
 11
445
 20
441.913
 21
440
  0
LINE
  8
0
 10
445
 11
445
 20
440
 21
320
  0
LINE
  8
0
 10
445
 11
444.619
 20
320
 21
318.087
  0
LINE
  8
0
 10
444.619
 11
443.536
 20
318.087
 21
316.464
  0
LINE
  8
0
 10
443.536
 11
441.913
 20
316.464
 21
315.381
  0
LINE
  8
0
 10
441.913
 11
440
 20
315.381
 21
315
  0
LINE
  8
0
 10
440
 11
320
 20
315
 21
315
  0
LINE
  8
0
 10
320
 11
318.087
 20
315
 21
315.381
  0
LINE
  8
0
 10
318.087
 11
316.464
 20
315.381
 21
316.464
  0
LINE
  8
0
 10
316.464
 11
315.381
 20
316.464
 21
318.087
  0
LINE
  8
0
 10
315.381
 11
315
 20
318.087
 21
320
  0
LINE
  8
0
 10
458.4
 11
459.2
 20
300
 21
301.386
  0
LINE
  8
0
 10
459.2
 11
460.8
 20
301.386
 21
301.386
  0
LINE
  8
0
 10
460.8
 11
461.6
 20
301.386
 21
300
  0
LINE
  8
0
 10
461.6
 11
460.8
 20
300
 21
298.614
  0
LINE
  8
0
 10
460.8
 11
459.2
 20
298.614
 21
298.614
  0
LINE
  8
0
 10
459.2
 11
458.4
 20
298.614
 21
300
  0
LINE
  8
0
 10
458.4
 11
459.2
 20
460
 21
461.386
  0
LINE
  8
0
 10
459.2
 11
460.8
 20
461.386
 21
461.386
  0
LINE
  8
0
 10
460.8
 11
461.6
 20
461.386
 21
460
  0
LINE
  8
0
 10
461.6
 11
460.8
 20
460
 21
458.614
  0
LINE
  8
0
 10
460.8
 11
459.2
 20
458.614
 21
458.614
  0
LINE
  8
0
 10
459.2
 11
458.4
 20
458.614
 21
460
  0
LINE
  8
0
 10
480
 11
480
 20
295
 21
465
  0
LINE
  8
0
 10
480
 11
480.381
 20
465
 21
466.913
  0
LINE
  8
0
 10
480.381
 11
481.464
 20
466.913
 21
468.536
  0
LINE
  8
0
 10
481.464
 11
483.087
 20
468.536
 21
469.619
  0
LINE
  8
0
 10
483.087
 11
485
 20
469.619
 21
470
  0
LINE
  8
0
 10
485
 11
655
 20
470
 21
470
  0
LINE
  8
0
 10
655
 11
656.913
 20
470
 21
469.619
  0
LINE
  8
0
 10
656.913
 11
658.536
 20
469.619
 21
468.536
  0
LINE
  8
0
 10
658.536
 11
659.619
 20
468.536
 21
466.913
  0
LINE
  8
0
 10
659.619
 11
660
 20
466.913
 21
465
  0
LINE
  8
0
 10
660
 11
660
 20
465
 21
295
  0
LINE
  8
0
 10
660
 11
659.619
 20
295
 21
293.087
  0
LINE
  8
0
 10
659.619
 11
658.536
 20
293.087
 21
291.464
  0
LINE
  8
0
 10
658.536
 11
656.913
 20
291.464
 21
290.381
  0
LINE
  8
0
 10
656.913
 11
655
 20
290.381
 21
290
  0
LINE
  8
0
 10
655
 11
485
 20
290
 21
290
  0
LINE
  8
0
 10
485
 11
483.087
 20
290
 21
290.381
  0
LINE
  8
0
 10
483.087
 11
481.464
 20
290.381
 21
291.464
  0
LINE
  8
0
 10
481.464
 11
480.381
 20
291.464
 21
293.087
  0
LINE
  8
0
 10
480.381
 11
480
 20
293.087
 21
295
  0
LINE
  8
0
 10
488.4
 11
489.2
 20
300
 21
301.386
  0
LINE
  8
0
 10
489.2
 11
490.8
 20
301.386
 21
301.386
  0
LINE
  8
0
 10
490.8
 11
491.6
 20
301.386
 21
300
  0
LINE
  8
0
 10
491.6
 11
490.8
 20
300
 21
298.614
  0
LINE
  8
0
 10
490.8
 11
489.2
 20
298.614
 21
298.614
  0
LINE
  8
0
 10
489.2
 11
488.4
 20
298.614
 21
300
  0
LINE
  8
0
 10
488.4
 11
489.2
 20
460
 21
461.386
  0
LINE
  8
0
 10
489.2
 11
490.8
 20
461.386
 21
461.386
  0
LINE
  8
0
 10
490.8
 11
491.6
 20
461.386
 21
460
  0
LINE
  8
0
 10
491.6
 11
490.8
 20
460
 21
458.614
  0
LINE
  8
0
 10
490.8
 11
489.2
 20
458.614
 21
458.614
  0
LINE
  8
0
 10
489.2
 11
488.4
 20
458.614
 21
460
  0
LINE
  8
0
 10
505
 11
505
 20
320
 21
440
  0
LINE
  8
0
 10
505
 11
505.381
 20
440
 21
441.913
  0
LINE
  8
0
 10
505.381
 11
506.464
 20
441.913
 21
443.536
  0
LINE
  8
0
 10
506.464
 11
508.087
 20
443.536
 21
444.619
  0
LINE
  8
0
 10
508.087
 11
510
 20
444.619
 21
445
  0
LINE
  8
0
 10
510
 11
630
 20
445
 21
445
  0
LINE
  8
0
 10
630
 11
631.913
 20
445
 21
444.619
  0
LINE
  8
0
 10
631.913
 11
633.536
 20
444.619
 21
443.536
  0
LINE
  8
0
 10
633.536
 11
634.619
 20
443.536
 21
441.913
  0
LINE
  8
0
 10
634.619
 11
635
 20
441.913
 21
440
  0
LINE
  8
0
 10
635
 11
635
 20
440
 21
320
  0
LINE
  8
0
 10
635
 11
634.619
 20
320
 21
318.087
  0
LINE
  8
0
 10
634.619
 11
633.536
 20
318.087
 21
316.464
  0
LINE
  8
0
 10
633.536
 11
631.913
 20
316.464
 21
315.381
  0
LINE
  8
0
 10
631.913
 11
630
 20
315.381
 21
315
  0
LINE
  8
0
 10
630
 11
510
 20
315
 21
315
  0
LINE
  8
0
 10
510
 11
508.087
 20
315
 21
315.381
  0
LINE
  8
0
 10
508.087
 11
506.464
 20
315.381
 21
316.464
  0
LINE
  8
0
 10
506.464
 11
505.381
 20
316.464
 21
318.087
  0
LINE
  8
0
 10
505.381
 11
505
 20
318.087
 21
320
  0
LINE
  8
0
 10
648.4
 11
649.2
 20
300
 21
301.386
  0
LINE
  8
0
 10
649.2
 11
650.8
 20
301.386
 21
301.386
  0
LINE
  8
0
 10
650.8
 11
651.6
 20
301.386
 21
300
  0
LINE
  8
0
 10
651.6
 11
650.8
 20
300
 21
298.614
  0
LINE
  8
0
 10
650.8
 11
649.2
 20
298.614
 21
298.614
  0
LINE
  8
0
 10
649.2
 11
648.4
 20
298.614
 21
300
  0
LINE
  8
0
 10
648.4
 11
649.2
 20
460
 21
461.386
  0
LINE
  8
0
 10
649.2
 11
650.8
 20
461.386
 21
461.386
  0
LINE
  8
0
 10
650.8
 11
651.6
 20
461.386
 21
460
  0
LINE
  8
0
 10
651.6
 11
650.8
 20
460
 21
458.614
  0
LINE
  8
0
 10
650.8
 11
649.2
 20
458.614
 21
458.614
  0
LINE
  8
0
 10
649.2
 11
648.4
 20
458.614
 21
460
  0
ENDSEC
  0
SECTION
  2
OBJECTS
  0
DICTIONARY
  0
ENDSEC
  0
EOF
