G04 DipTrace Beta 2.3.5.2*
%INscope.GBL*%
%MOIN*%
%ADD13C,0.016*%
%ADD14C,0.013*%
%ADD15C,0.063*%
%ADD16R,0.063X0.063*%
%ADD17R,0.0709X0.0709*%
%ADD18C,0.0709*%
%ADD19R,0.065X0.065*%
%ADD20C,0.065*%
%ADD21C,0.05*%
%ADD22R,0.05X0.05*%
%ADD23C,0.06*%
%ADD24C,0.06*%
%ADD25R,0.0591X0.0591*%
%ADD26C,0.0591*%
%ADD27C,0.048*%
%ADD28C,0.04*%
%FSLAX44Y44*%
G04*
G70*
G90*
G75*
G01*
%LNBottom*%
%LPD*%
X33940Y10440D2*
D13*
X32940Y11440D1*
X32440D1*
X29940Y13940D1*
X27940Y25440D2*
D14*
Y8440D1*
X28440Y7940D1*
X29940D1*
X21940Y25440D2*
Y16940D1*
X23440Y15440D1*
X25440D1*
X25940Y14940D1*
Y7940D1*
X27940Y5940D1*
X29940D1*
X22940Y25440D2*
Y19940D1*
X23940Y18940D1*
Y25440D2*
X25440Y23940D1*
Y19440D1*
X23940Y17940D1*
X19940Y28440D2*
X20940Y27440D1*
X25440D1*
X26440Y26440D1*
Y24940D1*
X27440Y23940D1*
Y7440D1*
X27940Y6940D1*
X29940D1*
X20940Y28440D2*
X22440Y29940D1*
X24440D1*
X25440Y28940D1*
Y27940D1*
X26940Y26440D1*
X27940D1*
X28440Y25940D1*
Y9440D1*
X28940Y8940D1*
X29940D1*
X20940Y25440D2*
Y16440D1*
X22940Y14440D1*
X24440D1*
X24940Y13940D1*
Y6940D1*
X26940Y4940D1*
X29940D1*
X38940Y38440D2*
X39940D1*
X40440Y37940D1*
Y30940D1*
X38940Y29440D1*
X34940D1*
X37940Y35440D2*
X37440Y34940D1*
X32695D1*
X32435Y34680D1*
Y27945D1*
X32175Y27685D1*
X30695D1*
X29940Y28440D1*
X26940Y39440D2*
D13*
Y37440D1*
X25940Y36440D1*
X19940Y33440D2*
X21440Y34940D1*
Y35440D1*
X21940Y35940D1*
X23940D1*
X24440Y36440D1*
X25940D1*
X19940Y38440D2*
X20440Y38940D1*
X23440D1*
X24440Y37940D1*
Y36440D1*
X35940Y35440D2*
X33940Y37440D1*
X26940D1*
X35940Y35440D2*
Y38440D1*
X36940D2*
X35940D1*
X19940D2*
X18940Y37440D1*
X17440D1*
X16940Y37940D1*
Y38440D1*
X16440Y40940D2*
X16940Y40440D1*
Y38440D1*
X18940Y25440D2*
Y28440D1*
X14940Y26440D2*
X15440Y25940D1*
X16940D1*
X17440Y25440D1*
X18940D1*
X23940Y13940D2*
X18902D1*
X15940D1*
X15440Y14440D1*
Y16440D1*
X13440Y18440D1*
Y10965D1*
X13940Y10465D1*
Y9440D1*
X14940Y8440D1*
X13440Y18440D2*
Y22013D1*
X13013D1*
X11940Y20940D1*
X35940Y17440D2*
Y19190D1*
X34940Y21940D2*
Y22440D1*
X33440Y23940D1*
X34940Y21940D2*
Y20190D1*
X35940Y19190D1*
X29940Y14940D2*
X34940D1*
X35440Y15440D1*
X36440Y14440D1*
X37940D1*
X33940Y8440D2*
X34440Y8940D1*
X38940D1*
X40440D1*
X40940Y8440D1*
Y5940D1*
X41710Y5170D1*
X42000D1*
X35940Y17440D2*
Y15940D1*
X35440Y15440D1*
X37940Y14440D2*
X39940D1*
X40940Y13440D1*
Y8440D1*
X13440Y22013D2*
Y22793D1*
X14412Y23766D1*
Y26968D1*
X14940Y26440D1*
X10440Y14940D2*
Y13940D1*
Y11940D1*
X11440Y14940D2*
X10440Y13940D1*
X11940Y16940D2*
X11440Y16440D1*
Y14940D1*
X6440Y10940D2*
X10440Y14940D1*
Y11940D2*
X11415Y10965D1*
X13440D1*
X12440Y9940D2*
X11415Y10965D1*
X6940Y18940D2*
X9940D1*
X11940Y20940D1*
X14412Y26968D2*
X13940Y27440D1*
Y35940D1*
X15440Y37440D1*
X17440D1*
X18440Y14440D2*
X18902Y13978D1*
Y13940D1*
X16940Y34440D2*
D14*
X19940Y37440D1*
X21940D1*
X22940Y38440D1*
Y33440D2*
Y32940D1*
X22440Y32440D1*
X18940D1*
X17940Y33440D1*
X16940D1*
X29940Y11940D2*
X30440Y11440D1*
Y9940D1*
X30940Y9440D1*
X32940D1*
X31440Y34440D2*
X28940D1*
X25940Y28440D2*
X26940Y29440D1*
X30440D1*
X31440Y28440D1*
Y26440D2*
X30940Y25940D1*
X29440D1*
X28940Y25440D1*
X19940Y41440D2*
X20440Y40940D1*
X29440D1*
X29940Y40440D1*
X38160D1*
X38430Y40170D1*
Y36726D1*
X38440Y36716D1*
Y33440D1*
X37391Y32391D1*
X33391D1*
X32940Y31940D1*
Y26940D1*
X29940Y23940D1*
X22940Y39440D2*
X23440Y39940D1*
X27440D1*
X27940Y39440D1*
X18440Y34940D2*
X19940Y36440D1*
X22940Y34440D2*
X24940D1*
X26940Y36440D1*
X20440Y29940D2*
X19940Y30440D1*
Y30940D1*
X23940D2*
X24940Y29940D1*
X25440D1*
D28*
D3*
X23940Y30940D3*
X20440Y29940D3*
X19940Y30940D3*
X18440Y34940D3*
X34940Y29440D3*
D15*
X38940Y8940D3*
D16*
Y10940D3*
D15*
X35940Y19190D3*
D16*
X34940D3*
D15*
X35940Y17440D3*
D16*
X34940D3*
D15*
X5440Y18440D3*
D16*
Y19440D3*
D15*
X11940Y17940D3*
D16*
Y16940D3*
D15*
X16440Y40940D3*
D16*
X18440D3*
D15*
X16940Y38440D3*
D16*
X17940D3*
D15*
X11940Y20940D3*
D16*
Y21940D3*
D15*
X16940Y25940D3*
D16*
Y27940D3*
D15*
X14940Y26440D3*
D16*
Y27440D3*
D15*
X35440Y15440D3*
D16*
Y13440D3*
D15*
X37940Y14440D3*
D16*
Y13440D3*
D15*
X12440Y9940D3*
D16*
X10440D3*
D15*
X18440Y14440D3*
D16*
Y12440D3*
D17*
X7940Y11440D3*
D18*
Y7090D3*
D19*
X32940Y10440D3*
D20*
Y9440D3*
Y8440D3*
X33940D3*
Y9440D3*
Y10440D3*
D19*
X34940Y21940D3*
D20*
X33940D3*
X32940D3*
D19*
X31440Y23940D3*
D20*
X32440D3*
X33440D3*
X34440D3*
D19*
X5440Y10940D3*
D20*
X6440D3*
D19*
X16940Y34440D3*
D20*
Y33440D3*
D19*
X20940Y4940D3*
D20*
Y5940D3*
Y6940D3*
Y7940D3*
Y8940D3*
Y9940D3*
Y10940D3*
Y11940D3*
D21*
X14940Y7440D3*
D22*
Y8440D3*
D23*
X36440Y7940D3*
D24*
Y11940D3*
D23*
X31940Y39940D3*
D24*
Y35940D3*
D23*
X27940Y41440D3*
D24*
X31940D3*
D23*
X26440Y32440D3*
D24*
X30440D3*
D23*
X24940Y34440D3*
D24*
X28940D3*
D23*
X33440Y41440D3*
D24*
X37440D3*
D23*
X36940Y39940D3*
D24*
X40940D3*
D23*
X31440Y34440D3*
D24*
X35440D3*
D23*
Y33440D3*
D24*
X39440D3*
D23*
X35440Y28440D3*
D24*
X31440D3*
D23*
X35440Y26440D3*
D24*
X31440D3*
D23*
X16440Y14940D3*
D24*
Y10940D3*
D23*
X14440Y15940D3*
D24*
Y11940D3*
D20*
X39440Y6940D3*
Y5170D3*
X42000D3*
Y6940D3*
D19*
X6940Y5940D3*
D20*
X5940D3*
X4940D3*
D25*
X29940Y4940D3*
D26*
Y5940D3*
Y6940D3*
Y7940D3*
Y8940D3*
Y9940D3*
Y10940D3*
Y11940D3*
Y12940D3*
Y13940D3*
Y14940D3*
Y15940D3*
Y16940D3*
Y17940D3*
Y18940D3*
Y19940D3*
Y20940D3*
Y21940D3*
Y22940D3*
Y23940D3*
X23940D3*
Y22940D3*
Y21940D3*
Y20940D3*
Y19940D3*
Y18940D3*
Y17940D3*
Y16940D3*
Y15940D3*
Y14940D3*
Y13940D3*
Y12940D3*
Y11940D3*
Y10940D3*
Y9940D3*
Y8940D3*
Y7940D3*
Y6940D3*
Y5940D3*
Y4940D3*
D25*
X19940Y36440D3*
D26*
Y35440D3*
Y34440D3*
Y33440D3*
X22940D3*
Y34440D3*
Y35440D3*
Y36440D3*
D25*
X19940Y41440D3*
D26*
Y40440D3*
Y39440D3*
Y38440D3*
X22940D3*
Y39440D3*
Y40440D3*
Y41440D3*
D25*
X28940Y39440D3*
D26*
X27940D3*
X26940D3*
X25940D3*
Y36440D3*
X26940D3*
X27940D3*
X28940D3*
D25*
X38940Y38440D3*
D26*
X37940D3*
X36940D3*
X35940D3*
Y35440D3*
X36940D3*
X37940D3*
X38940D3*
D25*
X29940Y28440D3*
D26*
X28940D3*
X27940D3*
X26940D3*
X25940D3*
X24940D3*
X23940D3*
X22940D3*
X21940D3*
X20940D3*
X19940D3*
X18940D3*
Y25440D3*
X19940D3*
X20940D3*
X21940D3*
X22940D3*
X23940D3*
X24940D3*
X25940D3*
X26940D3*
X27940D3*
X28940D3*
X29940D3*
D25*
X12440Y14940D3*
D26*
X11440D3*
X10440D3*
X9440D3*
Y11940D3*
X10440D3*
X11440D3*
X12440D3*
D25*
X6940Y20940D3*
D26*
Y19940D3*
Y18940D3*
Y17940D3*
X9940D3*
Y18940D3*
Y19940D3*
Y20940D3*
D27*
X31890Y15490D3*
Y17390D3*
M02*
