G04 DipTrace Beta 2.3.5.2*
%INscope.GTS*%
%MOIN*%
%ADD17R,0.0709X0.0709*%
%ADD39C,0.056*%
%ADD41C,0.0671*%
%ADD43R,0.0671X0.0671*%
%ADD45C,0.068*%
%ADD47C,0.068*%
%ADD49R,0.058X0.058*%
%ADD51C,0.058*%
%ADD53C,0.073*%
%ADD55R,0.073X0.073*%
%ADD57C,0.0789*%
%ADD59R,0.0789X0.0789*%
%ADD61C,0.071*%
%FSLAX44Y44*%
G04*
G70*
G90*
G75*
G01*
%LNTopMask*%
%LPD*%
D61*
X38440Y8940D3*
D17*
Y10940D3*
D61*
X36440Y19440D3*
D17*
X34440D3*
D61*
X36440Y17440D3*
D17*
X34440D3*
D61*
X4853Y18435D3*
D17*
Y19435D3*
D61*
X10940Y17940D3*
D17*
Y16940D3*
D61*
X16940Y35940D3*
D17*
X14940D3*
D61*
X16440Y33440D3*
D17*
X15440D3*
D61*
X11940Y20940D3*
D17*
Y21940D3*
D61*
X16940Y25940D3*
D17*
Y27940D3*
D61*
X14940Y26440D3*
D17*
Y27440D3*
D61*
X35440Y13440D3*
D17*
Y15440D3*
D61*
X37940Y13440D3*
D17*
Y14440D3*
D61*
X14940Y15940D3*
D17*
Y13940D3*
D59*
X7940Y11440D3*
D57*
Y7090D3*
D55*
X32440Y10440D3*
D53*
Y9440D3*
Y8440D3*
X33440D3*
Y9440D3*
Y10440D3*
D55*
X32940Y21940D3*
D53*
X33940D3*
X34940D3*
D55*
X31440Y23940D3*
D53*
X32440D3*
X33440D3*
X34440D3*
D55*
X5440Y10940D3*
D53*
X6440D3*
D55*
X17940Y38440D3*
D53*
Y37440D3*
D55*
X20940Y4940D3*
D53*
Y5940D3*
Y6940D3*
Y7940D3*
Y8940D3*
Y9940D3*
Y10940D3*
Y11940D3*
D51*
X13440Y6440D3*
D49*
Y7440D3*
D47*
X35940Y7940D3*
D45*
Y11940D3*
D47*
X31940Y39940D3*
D45*
Y35940D3*
D47*
X27940Y41440D3*
D45*
X31940D3*
D47*
X26440Y32440D3*
D45*
X30440D3*
D47*
X24940Y34440D3*
D45*
X28940D3*
D47*
X33440Y41440D3*
D45*
X37440D3*
D47*
X36940Y39940D3*
D45*
X40940D3*
D47*
X31440Y34440D3*
D45*
X35440D3*
D47*
Y33440D3*
D45*
X39440D3*
D47*
X35440Y28440D3*
D45*
X31440D3*
D47*
X35440Y26440D3*
D45*
X31440D3*
D47*
X8940Y5440D3*
D45*
X12940D3*
D53*
X39440Y6940D3*
Y5170D3*
X42000D3*
Y6940D3*
D55*
X6940Y5940D3*
D53*
X5940D3*
X4940D3*
D43*
X29940Y4940D3*
D41*
Y5940D3*
Y6940D3*
Y7940D3*
Y8940D3*
Y9940D3*
Y10940D3*
Y11940D3*
Y12940D3*
Y13940D3*
Y14940D3*
Y15940D3*
Y16940D3*
Y17940D3*
Y18940D3*
Y19940D3*
Y20940D3*
Y21940D3*
Y22940D3*
Y23940D3*
X23940D3*
Y22940D3*
Y21940D3*
Y20940D3*
Y19940D3*
Y18940D3*
Y17940D3*
Y16940D3*
Y15940D3*
Y14940D3*
Y13940D3*
Y12940D3*
Y11940D3*
Y10940D3*
Y9940D3*
Y8940D3*
Y7940D3*
Y6940D3*
Y5940D3*
Y4940D3*
D43*
X19940Y36440D3*
D41*
Y35440D3*
Y34440D3*
Y33440D3*
X22940D3*
Y34440D3*
Y35440D3*
Y36440D3*
D43*
X19940Y41440D3*
D41*
Y40440D3*
Y39440D3*
Y38440D3*
X22940D3*
Y39440D3*
Y40440D3*
Y41440D3*
D43*
X28940Y39440D3*
D41*
X27940D3*
X26940D3*
X25940D3*
Y36440D3*
X26940D3*
X27940D3*
X28940D3*
D43*
X38940Y38440D3*
D41*
X37940D3*
X36940D3*
X35940D3*
Y35440D3*
X36940D3*
X37940D3*
X38940D3*
D43*
X29940Y28440D3*
D41*
X28940D3*
X27940D3*
X26940D3*
X25940D3*
X24940D3*
X23940D3*
X22940D3*
X21940D3*
X20940D3*
X19940D3*
X18940D3*
Y25440D3*
X19940D3*
X20940D3*
X21940D3*
X22940D3*
X23940D3*
X24940D3*
X25940D3*
X26940D3*
X27940D3*
X28940D3*
X29940D3*
D43*
X12440Y14940D3*
D41*
X11440D3*
X10440D3*
X9440D3*
Y11940D3*
X10440D3*
X11440D3*
X12440D3*
D43*
X6940Y20940D3*
D41*
Y19940D3*
Y18940D3*
Y17940D3*
X9940D3*
Y18940D3*
Y19940D3*
Y20940D3*
D39*
X31890Y15490D3*
Y17390D3*
M02*
