M48
INCH
T01C0.0191
T02C0.028
T03C0.032
T04C0.0354
T05C0.038
T06C0.039
T07C0.0394
T08C0.0472
%
T01
X+018440Y+034940
X+019940Y+030940
X+020440Y+029940
X+023940Y+030940
X+025440Y+029940
X+034940Y+029440
T02
X+013440Y+006440
X+013440Y+007440
T03
X+031890Y+015490
X+031890Y+017390
T04
X+038440Y+008940
X+038440Y+010940
X+035440Y+013440
X+035440Y+015440
X+034440Y+017440
X+036440Y+017440
X+036440Y+019440
X+034440Y+019440
X+029940Y+018940
X+029940Y+017940
X+029940Y+016940
X+029940Y+015940
X+029940Y+014940
X+029940Y+013940
X+029940Y+012940
X+029940Y+011940
X+029940Y+010940
X+029940Y+009940
X+029940Y+008940
X+029940Y+007940
X+029940Y+006940
X+029940Y+005940
X+029940Y+004940
X+023940Y+004940
X+023940Y+005940
X+023940Y+006940
X+023940Y+007940
X+023940Y+008940
X+023940Y+009940
X+023940Y+010940
X+023940Y+011940
X+023940Y+012940
X+023940Y+013940
X+023940Y+014940
X+023940Y+015940
X+023940Y+016940
X+023940Y+017940
X+023940Y+018940
X+023940Y+019940
X+023940Y+020940
X+023940Y+021940
X+023940Y+022940
X+023940Y+023940
X+023940Y+025440
X+022940Y+025440
X+021940Y+025440
X+020940Y+025440
X+019940Y+025440
X+018940Y+025440
X+016940Y+025940
X+016940Y+027940
X+018940Y+028440
X+019940Y+028440
X+020940Y+028440
X+021940Y+028440
X+022940Y+028440
X+023940Y+028440
X+024940Y+028440
X+025940Y+028440
X+026940Y+028440
X+027940Y+028440
X+028940Y+028440
X+029940Y+028440
X+029940Y+025440
X+028940Y+025440
X+027940Y+025440
X+026940Y+025440
X+025940Y+025440
X+024940Y+025440
X+029940Y+023940
X+029940Y+022940
X+029940Y+021940
X+029940Y+020940
X+029940Y+019940
X+022940Y+033440
X+022940Y+034440
X+022940Y+035440
X+022940Y+036440
X+022940Y+038440
X+022940Y+039440
X+022940Y+040440
X+022940Y+041440
X+019940Y+041440
X+019940Y+040440
X+019940Y+039440
X+019940Y+038440
X+019940Y+036440
X+019940Y+035440
X+019940Y+034440
X+019940Y+033440
X+016940Y+035940
X+014940Y+035940
X+025940Y+036440
X+026940Y+036440
X+027940Y+036440
X+028940Y+036440
X+028940Y+039440
X+027940Y+039440
X+026940Y+039440
X+025940Y+039440
X+035940Y+038440
X+036940Y+038440
X+037940Y+038440
X+038940Y+038440
X+038940Y+035440
X+037940Y+035440
X+036940Y+035440
X+035940Y+035440
X+014940Y+015940
X+014940Y+013940
X+012440Y+014940
X+011440Y+014940
X+010440Y+014940
X+009440Y+014940
X+009440Y+011940
X+010440Y+011940
X+011440Y+011940
X+012440Y+011940
X+009940Y+017940
X+009940Y+018940
X+009940Y+019940
X+009940Y+020940
X+006940Y+020940
X+006940Y+019940
X+006940Y+018940
X+006940Y+017940
T05
X+035940Y+007940
X+035940Y+011940
X+035440Y+026440
X+035440Y+028440
X+031440Y+028440
X+031440Y+026440
X+030440Y+032440
X+031440Y+034440
X+031940Y+035940
X+028940Y+034440
X+026440Y+032440
X+024940Y+034440
X+027940Y+041440
X+031940Y+041440
X+033440Y+041440
X+031940Y+039940
X+036940Y+039940
X+037440Y+041440
X+040940Y+039940
X+039440Y+033440
X+035440Y+033440
X+035440Y+034440
X+012940Y+005440
X+008940Y+005440
T06
X+032440Y+010440
X+032440Y+009440
X+032440Y+008440
X+033440Y+008440
X+033440Y+009440
X+033440Y+010440
X+039440Y+006940
X+039440Y+005170
X+042000Y+005170
X+042000Y+006940
X+034940Y+021940
X+033940Y+021940
X+032940Y+021940
X+033440Y+023940
X+034440Y+023940
X+032440Y+023940
X+031440Y+023940
X+020940Y+011940
X+020940Y+010940
X+020940Y+009940
X+020940Y+008940
X+020940Y+007940
X+020940Y+006940
X+020940Y+005940
X+020940Y+004940
X+006940Y+005940
X+005940Y+005940
X+004940Y+005940
X+005440Y+010940
X+006440Y+010940
X+017940Y+037440
X+017940Y+038440
T07
X+004853Y+018435
X+004853Y+019435
X+010940Y+017940
X+010940Y+016940
X+011940Y+020940
X+011940Y+021940
X+014940Y+026440
X+014940Y+027440
X+015440Y+033440
X+016440Y+033440
X+037940Y+014440
X+037940Y+013440
T08
X+007940Y+011440
X+007940Y+007090
T00
M30
